<?xml version="1.0" encoding="UTF-8"?>
<svg xmlns="http://www.w3.org/2000/svg" width="706" height="525" viewBox="0 0 706 525" fill="none">
  <path d="M467.655 487.943H455.37V488.366H467.655V487.943Z" fill="#EBEBEB"></path>
  <path d="M587.11 471.035H560V471.457H587.11V471.035Z" fill="#EBEBEB"></path>
  <path d="M628.905 87.6409H286.777V416.647H628.905V87.6409Z" fill="#053D72"></path>
  <path d="M628.905 93.6997H292.284V411.01H628.905V93.6997Z" fill="#0F3457"></path>
  <path d="M294.826 334.078V238.688H304.71V226.147L327.161 215.58V202.758H330.832V238.688H334.503V334.078H339.586V284.622H350.741V258.555H354.412V334.078H363.167V305.616H369.379V298.148H383.076V272.222H390.418V254.75H399.173V228.824H402.844V254.75H411.598V272.222H419.082V298.148H432.637V305.616H438.85V334.078H446.333V298.148H460.03V218.82H463.701V210.225H493.635V218.82H499.848V275.886H524.558V282.085H533.313V285.749H524.558V308.152H550.68V233.756H555.622V218.82H568.048V161.896H571.86V218.82H580.473V233.756H628.905V411.01H292.284V334.078H294.826Z" fill="#1E4F7D"></path>
  <path d="M603.065 237.56H599.535V241.083H603.065V237.56Z" fill="#467CAE"></path>
  <path d="M603.065 243.478H599.535V247.001H603.065V243.478Z" fill="#467CAE"></path>
  <path d="M603.065 267.009H599.535V270.531H603.065V267.009Z" fill="#467CAE"></path>
  <path d="M603.065 272.927H599.535V276.449H603.065V272.927Z" fill="#467CAE"></path>
  <path d="M603.065 278.845H599.535V282.367H603.065V278.845Z" fill="#467CAE"></path>
  <path d="M603.065 296.457H599.535V299.98H603.065V296.457Z" fill="#467CAE"></path>
  <path d="M603.065 302.375H599.535V305.898H603.065V302.375Z" fill="#467CAE"></path>
  <path d="M597.417 261.232H593.887V264.754H597.417V261.232Z" fill="#467CAE"></path>
  <path d="M597.417 267.009H593.887V270.531H597.417V267.009Z" fill="#467CAE"></path>
  <path d="M597.417 272.927H593.887V276.449H597.417V272.927Z" fill="#467CAE"></path>
  <path d="M597.417 278.845H593.887V282.367H597.417V278.845Z" fill="#467CAE"></path>
  <path d="M597.417 284.763H593.887V288.285H597.417V284.763Z" fill="#467CAE"></path>
  <path d="M597.417 296.457H593.887V299.98H597.417V296.457Z" fill="#467CAE"></path>
  <path d="M597.417 302.375H593.887V305.898H597.417V302.375Z" fill="#467CAE"></path>
  <path d="M591.911 237.56H588.381V241.083H591.911V237.56Z" fill="#467CAE"></path>
  <path d="M591.911 243.478H588.381V247.001H591.911V243.478Z" fill="#467CAE"></path>
  <path d="M591.911 249.396H588.381V252.919H591.911V249.396Z" fill="#467CAE"></path>
  <path d="M591.911 255.314H588.381V258.837H591.911V255.314Z" fill="#467CAE"></path>
  <path d="M591.911 261.232H588.381V264.754H591.911V261.232Z" fill="#467CAE"></path>
  <path d="M591.911 267.009H588.381V270.531H591.911V267.009Z" fill="#467CAE"></path>
  <path d="M591.911 272.927H588.381V276.449H591.911V272.927Z" fill="#467CAE"></path>
  <path d="M591.911 278.845H588.381V282.367H591.911V278.845Z" fill="#467CAE"></path>
  <path d="M591.911 284.763H588.381V288.285H591.911V284.763Z" fill="#467CAE"></path>
  <path d="M591.911 290.539H588.381V294.062H591.911V290.539Z" fill="#467CAE"></path>
  <path d="M591.911 302.375H588.381V305.898H591.911V302.375Z" fill="#467CAE"></path>
  <path d="M586.262 237.56H582.732V241.083H586.262V237.56Z" fill="#467CAE"></path>
  <path d="M586.262 243.478H582.732V247.001H586.262V243.478Z" fill="#467CAE"></path>
  <path d="M586.262 249.396H582.732V252.919H586.262V249.396Z" fill="#467CAE"></path>
  <path d="M586.262 255.314H582.732V258.837H586.262V255.314Z" fill="#467CAE"></path>
  <path d="M586.262 261.232H582.732V264.754H586.262V261.232Z" fill="#467CAE"></path>
  <path d="M586.262 267.009H582.732V270.531H586.262V267.009Z" fill="#467CAE"></path>
  <path d="M586.262 272.927H582.732V276.449H586.262V272.927Z" fill="#467CAE"></path>
  <path d="M586.262 325.906H582.732V329.428H586.262V325.906Z" fill="#467CAE"></path>
  <path d="M580.756 237.56H577.226V241.083H580.756V237.56Z" fill="#467CAE"></path>
  <path d="M580.756 243.478H577.226V247.001H580.756V243.478Z" fill="#467CAE"></path>
  <path d="M580.756 249.396H577.226V252.919H580.756V249.396Z" fill="#467CAE"></path>
  <path d="M580.756 255.314H577.226V258.837H580.756V255.314Z" fill="#467CAE"></path>
  <path d="M580.756 261.232H577.226V264.754H580.756V261.232Z" fill="#467CAE"></path>
  <path d="M580.756 267.009H577.226V270.531H580.756V267.009Z" fill="#467CAE"></path>
  <path d="M580.53 273H577V276.523H580.53V273Z" fill="#467CAE"></path>
  <path d="M580.756 278.845H577.226V282.367H580.756V278.845Z" fill="#467CAE"></path>
  <path d="M580.756 314.211H577.226V317.733H580.756V314.211Z" fill="#467CAE"></path>
  <path d="M580.756 319.988H577.226V323.511H580.756V319.988Z" fill="#467CAE"></path>
  <path d="M580.756 325.906H577.226V329.428H580.756V325.906Z" fill="#467CAE"></path>
  <path d="M580.756 331.824H577.226V335.346H580.756V331.824Z" fill="#467CAE"></path>
  <path d="M580.756 355.354H577.226V358.877H580.756V355.354Z" fill="#467CAE"></path>
  <path d="M575.108 237.56H571.578V241.083H575.108V237.56Z" fill="#467CAE"></path>
  <path d="M575.108 243.478H571.578V247.001H575.108V243.478Z" fill="#467CAE"></path>
  <path d="M575.108 249.396H571.578V252.919H575.108V249.396Z" fill="#467CAE"></path>
  <path d="M575.108 255.314H571.578V258.837H575.108V255.314Z" fill="#467CAE"></path>
  <path d="M575.108 261.232H571.578V264.754H575.108V261.232Z" fill="#467CAE"></path>
  <path d="M575.108 267.009H571.578V270.531H575.108V267.009Z" fill="#467CAE"></path>
  <path d="M575.108 272.927H571.578V276.449H575.108V272.927Z" fill="#467CAE"></path>
  <path d="M575.108 278.845H571.578V282.367H575.108V278.845Z" fill="#467CAE"></path>
  <path d="M575.108 284.763H571.578V288.285H575.108V284.763Z" fill="#467CAE"></path>
  <path d="M575.108 290.539H571.578V294.062H575.108V290.539Z" fill="#467CAE"></path>
  <path d="M575.108 308.293H571.578V311.816H575.108V308.293Z" fill="#467CAE"></path>
  <path d="M575.108 314.211H571.578V317.733H575.108V314.211Z" fill="#467CAE"></path>
  <path d="M575.108 319.988H571.578V323.511H575.108V319.988Z" fill="#467CAE"></path>
  <path d="M575.108 325.906H571.578V329.428H575.108V325.906Z" fill="#467CAE"></path>
  <path d="M575.108 331.824H571.578V335.346H575.108V331.824Z" fill="#467CAE"></path>
  <path d="M575.108 355.354H571.578V358.877H575.108V355.354Z" fill="#467CAE"></path>
  <path d="M569.601 237.56H566.071V241.083H569.601V237.56Z" fill="#467CAE"></path>
  <path d="M569.601 243.478H566.071V247.001H569.601V243.478Z" fill="#467CAE"></path>
  <path d="M569.601 249.396H566.071V252.919H569.601V249.396Z" fill="#467CAE"></path>
  <path d="M569.601 255.314H566.071V258.837H569.601V255.314Z" fill="#467CAE"></path>
  <path d="M569.601 261.232H566.071V264.754H569.601V261.232Z" fill="#467CAE"></path>
  <path d="M569.601 267.009H566.071V270.531H569.601V267.009Z" fill="#467CAE"></path>
  <path d="M569.601 272.927H566.071V276.449H569.601V272.927Z" fill="#467CAE"></path>
  <path d="M569.601 278.845H566.071V282.367H569.601V278.845Z" fill="#467CAE"></path>
  <path d="M569.601 284.763H566.071V288.285H569.601V284.763Z" fill="#467CAE"></path>
  <path d="M569.601 290.539H566.071V294.062H569.601V290.539Z" fill="#467CAE"></path>
  <path d="M569.601 296.457H566.071V299.98H569.601V296.457Z" fill="#467CAE"></path>
  <path d="M569.601 302.375H566.071V305.898H569.601V302.375Z" fill="#467CAE"></path>
  <path d="M569.601 308.293H566.071V311.816H569.601V308.293Z" fill="#467CAE"></path>
  <path d="M569.601 314.211H566.071V317.733H569.601V314.211Z" fill="#467CAE"></path>
  <path d="M569.601 319.988H566.071V323.511H569.601V319.988Z" fill="#467CAE"></path>
  <path d="M569.601 325.906H566.071V329.428H569.601V325.906Z" fill="#467CAE"></path>
  <path d="M569.601 331.824H566.071V335.346H569.601V331.824Z" fill="#467CAE"></path>
  <path d="M569.601 337.742H566.071V341.264H569.601V337.742Z" fill="#467CAE"></path>
  <path d="M563.953 237.56H560.423V241.083H563.953V237.56Z" fill="#467CAE"></path>
  <path d="M563.953 243.478H560.423V247.001H563.953V243.478Z" fill="#467CAE"></path>
  <path d="M563.953 249.396H560.423V252.919H563.953V249.396Z" fill="#467CAE"></path>
  <path d="M563.953 255.314H560.423V258.837H563.953V255.314Z" fill="#467CAE"></path>
  <path d="M563.953 261.232H560.423V264.754H563.953V261.232Z" fill="#467CAE"></path>
  <path d="M563.953 267.009H560.423V270.531H563.953V267.009Z" fill="#467CAE"></path>
  <path d="M563.953 272.927H560.423V276.449H563.953V272.927Z" fill="#467CAE"></path>
  <path d="M563.953 278.845H560.423V282.367H563.953V278.845Z" fill="#467CAE"></path>
  <path d="M563.953 284.763H560.423V288.285H563.953V284.763Z" fill="#467CAE"></path>
  <path d="M563.953 290.539H560.423V294.062H563.953V290.539Z" fill="#467CAE"></path>
  <path d="M563.953 308.293H560.423V311.816H563.953V308.293Z" fill="#467CAE"></path>
  <path d="M563.953 314.211H560.423V317.733H563.953V314.211Z" fill="#467CAE"></path>
  <path d="M563.953 319.988H560.423V323.511H563.953V319.988Z" fill="#467CAE"></path>
  <path d="M563.953 325.906H560.423V329.428H563.953V325.906Z" fill="#467CAE"></path>
  <path d="M558.305 237.56H554.775V241.083H558.305V237.56Z" fill="#467CAE"></path>
  <path d="M558.305 243.478H554.775V247.001H558.305V243.478Z" fill="#467CAE"></path>
  <path d="M558.305 249.396H554.775V252.919H558.305V249.396Z" fill="#467CAE"></path>
  <path d="M558.305 255.314H554.775V258.837H558.305V255.314Z" fill="#467CAE"></path>
  <path d="M558.305 261.232H554.775V264.754H558.305V261.232Z" fill="#467CAE"></path>
  <path d="M558.305 267.009H554.775V270.531H558.305V267.009Z" fill="#467CAE"></path>
  <path d="M558.305 272.927H554.775V276.449H558.305V272.927Z" fill="#467CAE"></path>
  <path d="M558.305 278.845H554.775V282.367H558.305V278.845Z" fill="#467CAE"></path>
  <path d="M558.305 284.763H554.775V288.285H558.305V284.763Z" fill="#467CAE"></path>
  <path d="M558.305 290.539H554.775V294.062H558.305V290.539Z" fill="#467CAE"></path>
  <path d="M558.305 308.293H554.775V311.816H558.305V308.293Z" fill="#467CAE"></path>
  <path d="M558.305 314.211H554.775V317.733H558.305V314.211Z" fill="#467CAE"></path>
  <path d="M558.305 319.988H554.775V323.511H558.305V319.988Z" fill="#467CAE"></path>
  <path d="M495.471 222.343H491.941V225.866H495.471V222.343Z" fill="#467CAE"></path>
  <path d="M495.471 228.261H491.941V231.783H495.471V228.261Z" fill="#467CAE"></path>
  <path d="M495.471 234.038H491.941V237.56H495.471V234.038Z" fill="#467CAE"></path>
  <path d="M495.471 239.956H491.941V243.478H495.471V239.956Z" fill="#467CAE"></path>
  <path d="M495.471 245.874H491.941V249.396H495.471V245.874Z" fill="#467CAE"></path>
  <path d="M495.471 251.792H491.941V255.314H495.471V251.792Z" fill="#467CAE"></path>
  <path d="M495.471 257.709H491.941V261.232H495.471V257.709Z" fill="#467CAE"></path>
  <path d="M495.471 263.486H491.941V267.009H495.471V263.486Z" fill="#467CAE"></path>
  <path d="M495.471 281.24H491.941V284.763H495.471V281.24Z" fill="#467CAE"></path>
  <path d="M495.471 287.158H491.941V290.68H495.471V287.158Z" fill="#467CAE"></path>
  <path d="M489.823 222.343H486.293V225.866H489.823V222.343Z" fill="#467CAE"></path>
  <path d="M489.823 228.261H486.293V231.783H489.823V228.261Z" fill="#467CAE"></path>
  <path d="M489.823 234.038H486.293V237.56H489.823V234.038Z" fill="#467CAE"></path>
  <path d="M489.823 239.956H486.293V243.478H489.823V239.956Z" fill="#467CAE"></path>
  <path d="M489.823 245.874H486.293V249.396H489.823V245.874Z" fill="#467CAE"></path>
  <path d="M489.823 251.792H486.293V255.314H489.823V251.792Z" fill="#467CAE"></path>
  <path d="M489.823 257.709H486.293V261.232H489.823V257.709Z" fill="#467CAE"></path>
  <path d="M489.823 263.486H486.293V267.009H489.823V263.486Z" fill="#467CAE"></path>
  <path d="M489.823 287.158H486.293V290.68H489.823V287.158Z" fill="#467CAE"></path>
  <path d="M484.175 222.343H480.645V225.866H484.175V222.343Z" fill="#467CAE"></path>
  <path d="M484.175 228.261H480.645V231.783H484.175V228.261Z" fill="#467CAE"></path>
  <path d="M484.175 234.038H480.645V237.56H484.175V234.038Z" fill="#467CAE"></path>
  <path d="M484.175 239.956H480.645V243.478H484.175V239.956Z" fill="#467CAE"></path>
  <path d="M484.175 245.874H480.645V249.396H484.175V245.874Z" fill="#467CAE"></path>
  <path d="M484.175 251.792H480.645V255.314H484.175V251.792Z" fill="#467CAE"></path>
  <path d="M484.175 257.709H480.645V261.232H484.175V257.709Z" fill="#467CAE"></path>
  <path d="M484.175 263.486H480.645V267.009H484.175V263.486Z" fill="#467CAE"></path>
  <path d="M478.668 222.343H475.138V225.866H478.668V222.343Z" fill="#467CAE"></path>
  <path d="M478.668 228.261H475.138V231.783H478.668V228.261Z" fill="#467CAE"></path>
  <path d="M478.668 234.038H475.138V237.56H478.668V234.038Z" fill="#467CAE"></path>
  <path d="M478.668 239.956H475.138V243.478H478.668V239.956Z" fill="#467CAE"></path>
  <path d="M478.668 245.874H475.138V249.396H478.668V245.874Z" fill="#467CAE"></path>
  <path d="M478.668 251.792H475.138V255.314H478.668V251.792Z" fill="#467CAE"></path>
  <path d="M478.668 263.486H475.138V267.009H478.668V263.486Z" fill="#467CAE"></path>
  <path d="M478.668 269.404H475.138V272.927H478.668V269.404Z" fill="#467CAE"></path>
  <path d="M478.668 287.158H475.138V290.68H478.668V287.158Z" fill="#467CAE"></path>
  <path d="M478.668 292.935H475.138V296.457H478.668V292.935Z" fill="#467CAE"></path>
  <path d="M478.668 298.853H475.138V302.375H478.668V298.853Z" fill="#467CAE"></path>
  <path d="M478.668 304.771H475.138V308.293H478.668V304.771Z" fill="#467CAE"></path>
  <path d="M478.668 310.688H475.138V314.211H478.668V310.688Z" fill="#467CAE"></path>
  <path d="M478.668 316.606H475.138V320.129H478.668V316.606Z" fill="#467CAE"></path>
  <path d="M478.668 322.383H475.138V325.906H478.668V322.383Z" fill="#467CAE"></path>
  <path d="M473.02 222.343H469.49V225.866H473.02V222.343Z" fill="#467CAE"></path>
  <path d="M473.02 228.261H469.49V231.783H473.02V228.261Z" fill="#467CAE"></path>
  <path d="M473.02 234.038H469.49V237.56H473.02V234.038Z" fill="#467CAE"></path>
  <path d="M473.02 239.956H469.49V243.478H473.02V239.956Z" fill="#467CAE"></path>
  <path d="M473.02 245.874H469.49V249.396H473.02V245.874Z" fill="#467CAE"></path>
  <path d="M473.02 251.792H469.49V255.314H473.02V251.792Z" fill="#467CAE"></path>
  <path d="M473.02 269.404H469.49V272.927H473.02V269.404Z" fill="#467CAE"></path>
  <path d="M473.02 275.322H469.49V278.845H473.02V275.322Z" fill="#467CAE"></path>
  <path d="M473.02 281.24H469.49V284.763H473.02V281.24Z" fill="#467CAE"></path>
  <path d="M473.02 287.158H469.49V290.68H473.02V287.158Z" fill="#467CAE"></path>
  <path d="M473.02 292.935H469.49V296.457H473.02V292.935Z" fill="#467CAE"></path>
  <path d="M473.02 298.853H469.49V302.375H473.02V298.853Z" fill="#467CAE"></path>
  <path d="M473.02 304.771H469.49V308.293H473.02V304.771Z" fill="#467CAE"></path>
  <path d="M473.02 310.688H469.49V314.211H473.02V310.688Z" fill="#467CAE"></path>
  <path d="M473.02 316.606H469.49V320.129H473.02V316.606Z" fill="#467CAE"></path>
  <path d="M473.02 322.383H469.49V325.906H473.02V322.383Z" fill="#467CAE"></path>
  <path d="M473.02 328.301H469.49V331.824H473.02V328.301Z" fill="#467CAE"></path>
  <path d="M473.02 340.137H469.49V343.659H473.02V340.137Z" fill="#467CAE"></path>
  <path d="M467.513 222.343H463.983V225.866H467.513V222.343Z" fill="#467CAE"></path>
  <path d="M467.513 228.261H463.983V231.783H467.513V228.261Z" fill="#467CAE"></path>
  <path d="M467.513 234.038H463.983V237.56H467.513V234.038Z" fill="#467CAE"></path>
  <path d="M467.513 239.956H463.983V243.478H467.513V239.956Z" fill="#467CAE"></path>
  <path d="M467.513 245.874H463.983V249.396H467.513V245.874Z" fill="#467CAE"></path>
  <path d="M467.513 251.792H463.983V255.314H467.513V251.792Z" fill="#467CAE"></path>
  <path d="M467.513 269.404H463.983V272.927H467.513V269.404Z" fill="#467CAE"></path>
  <path d="M467.513 275.322H463.983V278.845H467.513V275.322Z" fill="#467CAE"></path>
  <path d="M467.513 281.24H463.983V284.763H467.513V281.24Z" fill="#467CAE"></path>
  <path d="M467.513 287.158H463.983V290.68H467.513V287.158Z" fill="#467CAE"></path>
  <path d="M467.513 304.771H463.983V308.293H467.513V304.771Z" fill="#467CAE"></path>
  <path d="M467.513 310.688H463.983V314.211H467.513V310.688Z" fill="#467CAE"></path>
  <path d="M467.513 316.606H463.983V320.129H467.513V316.606Z" fill="#467CAE"></path>
  <path d="M467.513 322.383H463.983V325.906H467.513V322.383Z" fill="#467CAE"></path>
  <path d="M467.513 328.301H463.983V331.824H467.513V328.301Z" fill="#467CAE"></path>
  <path d="M467.513 340.137H463.983V343.659H467.513V340.137Z" fill="#467CAE"></path>
  <path d="M467.513 345.914H463.983V349.436H467.513V345.914Z" fill="#467CAE"></path>
  <path d="M416.681 277.013H413.151V280.535H416.681V277.013Z" fill="#467CAE"></path>
  <path d="M416.681 282.931H413.151V286.453H416.681V282.931Z" fill="#467CAE"></path>
  <path d="M416.681 288.849H413.151V292.371H416.681V288.849Z" fill="#467CAE"></path>
  <path d="M416.681 294.767H413.151V298.289H416.681V294.767Z" fill="#467CAE"></path>
  <path d="M416.681 300.684H413.151V304.207H416.681V300.684Z" fill="#467CAE"></path>
  <path d="M416.681 306.461H413.151V309.984H416.681V306.461Z" fill="#467CAE"></path>
  <path d="M416.681 312.379H413.151V315.902H416.681V312.379Z" fill="#467CAE"></path>
  <path d="M416.681 330.133H413.151V333.655H416.681V330.133Z" fill="#467CAE"></path>
  <path d="M416.681 335.91H413.151V339.432H416.681V335.91Z" fill="#467CAE"></path>
  <path d="M416.681 341.828H413.151V345.35H416.681V341.828Z" fill="#467CAE"></path>
  <path d="M411.175 277.013H407.645V280.535H411.175V277.013Z" fill="#467CAE"></path>
  <path d="M411.175 282.931H407.645V286.453H411.175V282.931Z" fill="#467CAE"></path>
  <path d="M411.175 288.849H407.645V292.371H411.175V288.849Z" fill="#467CAE"></path>
  <path d="M411.175 294.767H407.645V298.289H411.175V294.767Z" fill="#467CAE"></path>
  <path d="M411.175 300.684H407.645V304.207H411.175V300.684Z" fill="#467CAE"></path>
  <path d="M411.175 306.461H407.645V309.984H411.175V306.461Z" fill="#467CAE"></path>
  <path d="M411.175 312.379H407.645V315.902H411.175V312.379Z" fill="#467CAE"></path>
  <path d="M405.527 277.013H401.997V280.535H405.527V277.013Z" fill="#467CAE"></path>
  <path d="M405.527 282.931H401.997V286.453H405.527V282.931Z" fill="#467CAE"></path>
  <path d="M405.527 288.849H401.997V292.371H405.527V288.849Z" fill="#467CAE"></path>
  <path d="M405.527 294.767H401.997V298.289H405.527V294.767Z" fill="#467CAE"></path>
  <path d="M405.527 300.684H401.997V304.207H405.527V300.684Z" fill="#467CAE"></path>
  <path d="M405.527 306.461H401.997V309.984H405.527V306.461Z" fill="#467CAE"></path>
  <path d="M405.527 312.379H401.997V315.902H405.527V312.379Z" fill="#467CAE"></path>
  <path d="M400.02 277.013H396.49V280.535H400.02V277.013Z" fill="#467CAE"></path>
  <path d="M400.02 282.931H396.49V286.453H400.02V282.931Z" fill="#467CAE"></path>
  <path d="M400.02 288.849H396.49V292.371H400.02V288.849Z" fill="#467CAE"></path>
  <path d="M400.02 294.767H396.49V298.289H400.02V294.767Z" fill="#467CAE"></path>
  <path d="M400.02 300.684H396.49V304.207H400.02V300.684Z" fill="#467CAE"></path>
  <path d="M400.02 306.461H396.49V309.984H400.02V306.461Z" fill="#467CAE"></path>
  <path d="M400.02 312.379H396.49V315.902H400.02V312.379Z" fill="#467CAE"></path>
  <path d="M400.02 318.297H396.49V321.82H400.02V318.297Z" fill="#467CAE"></path>
  <path d="M400.02 324.215H396.49V327.738H400.02V324.215Z" fill="#467CAE"></path>
  <path d="M400.02 330.133H396.49V333.655H400.02V330.133Z" fill="#467CAE"></path>
  <path d="M400.02 335.91H396.49V339.432H400.02V335.91Z" fill="#467CAE"></path>
  <path d="M394.372 277.013H390.842V280.535H394.372V277.013Z" fill="#467CAE"></path>
  <path d="M394.372 282.931H390.842V286.453H394.372V282.931Z" fill="#467CAE"></path>
  <path d="M394.372 288.849H390.842V292.371H394.372V288.849Z" fill="#467CAE"></path>
  <path d="M394.372 294.767H390.842V298.289H394.372V294.767Z" fill="#467CAE"></path>
  <path d="M394.372 300.684H390.842V304.207H394.372V300.684Z" fill="#467CAE"></path>
  <path d="M394.372 306.461H390.842V309.984H394.372V306.461Z" fill="#467CAE"></path>
  <path d="M394.372 312.379H390.842V315.902H394.372V312.379Z" fill="#467CAE"></path>
  <path d="M394.372 318.297H390.842V321.82H394.372V318.297Z" fill="#467CAE"></path>
  <path d="M394.372 324.215H390.842V327.738H394.372V324.215Z" fill="#467CAE"></path>
  <path d="M394.372 330.133H390.842V333.655H394.372V330.133Z" fill="#467CAE"></path>
  <path d="M394.372 335.91H390.842V339.432H394.372V335.91Z" fill="#467CAE"></path>
  <path d="M394.372 341.828H390.842V345.35H394.372V341.828Z" fill="#467CAE"></path>
  <path d="M394.372 359.581H390.842V363.104H394.372V359.581Z" fill="#467CAE"></path>
  <path d="M394.372 365.358H390.842V368.881H394.372V365.358Z" fill="#467CAE"></path>
  <path d="M388.724 277.013H385.194V280.535H388.724V277.013Z" fill="#467CAE"></path>
  <path d="M388.724 282.931H385.194V286.453H388.724V282.931Z" fill="#467CAE"></path>
  <path d="M388.724 288.849H385.194V292.371H388.724V288.849Z" fill="#467CAE"></path>
  <path d="M388.724 306.461H385.194V309.984H388.724V306.461Z" fill="#467CAE"></path>
  <path d="M388.724 312.379H385.194V315.902H388.724V312.379Z" fill="#467CAE"></path>
  <path d="M388.724 318.297H385.194V321.82H388.724V318.297Z" fill="#467CAE"></path>
  <path d="M388.724 324.215H385.194V327.738H388.724V324.215Z" fill="#467CAE"></path>
  <path d="M388.724 330.133H385.194V333.655H388.724V330.133Z" fill="#467CAE"></path>
  <path d="M388.724 335.91H385.194V339.432H388.724V335.91Z" fill="#467CAE"></path>
  <path d="M388.724 341.828H385.194V345.35H388.724V341.828Z" fill="#467CAE"></path>
  <path d="M388.724 359.581H385.194V363.104H388.724V359.581Z" fill="#467CAE"></path>
  <path d="M388.724 365.358H385.194V368.881H388.724V365.358Z" fill="#467CAE"></path>
  <path d="M388.724 371.276H385.194V374.799H388.724V371.276Z" fill="#467CAE"></path>
  <path d="M330.126 241.787H326.596V245.31H330.126V241.787Z" fill="#467CAE"></path>
  <path d="M330.126 247.705H326.596V251.228H330.126V247.705Z" fill="#467CAE"></path>
  <path d="M330.126 253.482H326.596V257.005H330.126V253.482Z" fill="#467CAE"></path>
  <path d="M330.126 259.4H326.596V262.923H330.126V259.4Z" fill="#467CAE"></path>
  <path d="M330.126 265.318H326.596V268.841H330.126V265.318Z" fill="#467CAE"></path>
  <path d="M330.126 271.236H326.596V274.758H330.126V271.236Z" fill="#467CAE"></path>
  <path d="M330.126 277.013H326.596V280.535H330.126V277.013Z" fill="#467CAE"></path>
  <path d="M330.126 282.931H326.596V286.453H330.126V282.931Z" fill="#467CAE"></path>
  <path d="M330.126 288.849H326.596V292.371H330.126V288.849Z" fill="#467CAE"></path>
  <path d="M330.126 294.767H326.596V298.289H330.126V294.767Z" fill="#467CAE"></path>
  <path d="M330.126 300.684H326.596V304.207H330.126V300.684Z" fill="#467CAE"></path>
  <path d="M330.126 306.461H326.596V309.984H330.126V306.461Z" fill="#467CAE"></path>
  <path d="M330.126 312.379H326.596V315.902H330.126V312.379Z" fill="#467CAE"></path>
  <path d="M330.126 318.297H326.596V321.82H330.126V318.297Z" fill="#467CAE"></path>
  <path d="M330.126 324.215H326.596V327.738H330.126V324.215Z" fill="#467CAE"></path>
  <path d="M330.126 330.133H326.596V333.655H330.126V330.133Z" fill="#467CAE"></path>
  <path d="M330.126 335.91H326.596V339.432H330.126V335.91Z" fill="#467CAE"></path>
  <path d="M330.126 341.828H326.596V345.35H330.126V341.828Z" fill="#467CAE"></path>
  <path d="M330.126 347.746H326.596V351.268H330.126V347.746Z" fill="#467CAE"></path>
  <path d="M330.126 353.663H326.596V357.186H330.126V353.663Z" fill="#467CAE"></path>
  <path d="M330.126 359.581H326.596V363.104H330.126V359.581Z" fill="#467CAE"></path>
  <path d="M330.126 365.358H326.596V368.881H330.126V365.358Z" fill="#467CAE"></path>
  <path d="M330.126 371.276H326.596V374.799H330.126V371.276Z" fill="#467CAE"></path>
  <path d="M324.619 241.787H321.089V245.31H324.619V241.787Z" fill="#467CAE"></path>
  <path d="M324.619 247.705H321.089V251.228H324.619V247.705Z" fill="#467CAE"></path>
  <path d="M324.619 253.482H321.089V257.005H324.619V253.482Z" fill="#467CAE"></path>
  <path d="M324.619 259.4H321.089V262.923H324.619V259.4Z" fill="#467CAE"></path>
  <path d="M324.619 265.318H321.089V268.841H324.619V265.318Z" fill="#467CAE"></path>
  <path d="M324.619 271.236H321.089V274.758H324.619V271.236Z" fill="#467CAE"></path>
  <path d="M324.619 277.013H321.089V280.535H324.619V277.013Z" fill="#467CAE"></path>
  <path d="M324.619 282.931H321.089V286.453H324.619V282.931Z" fill="#467CAE"></path>
  <path d="M324.619 288.849H321.089V292.371H324.619V288.849Z" fill="#467CAE"></path>
  <path d="M324.619 294.767H321.089V298.289H324.619V294.767Z" fill="#467CAE"></path>
  <path d="M324.619 300.684H321.089V304.207H324.619V300.684Z" fill="#467CAE"></path>
  <path d="M324.619 306.461H321.089V309.984H324.619V306.461Z" fill="#467CAE"></path>
  <path d="M324.619 312.379H321.089V315.902H324.619V312.379Z" fill="#467CAE"></path>
  <path d="M324.619 318.297H321.089V321.82H324.619V318.297Z" fill="#467CAE"></path>
  <path d="M324.619 324.215H321.089V327.738H324.619V324.215Z" fill="#467CAE"></path>
  <path d="M324.619 330.133H321.089V333.655H324.619V330.133Z" fill="#467CAE"></path>
  <path d="M324.619 335.91H321.089V339.432H324.619V335.91Z" fill="#467CAE"></path>
  <path d="M324.619 341.828H321.089V345.35H324.619V341.828Z" fill="#467CAE"></path>
  <path d="M324.619 347.746H321.089V351.268H324.619V347.746Z" fill="#467CAE"></path>
  <path d="M318.971 241.787H315.441V245.31H318.971V241.787Z" fill="#467CAE"></path>
  <path d="M318.971 247.705H315.441V251.228H318.971V247.705Z" fill="#467CAE"></path>
  <path d="M318.971 253.482H315.441V257.005H318.971V253.482Z" fill="#467CAE"></path>
  <path d="M318.971 259.4H315.441V262.923H318.971V259.4Z" fill="#467CAE"></path>
  <path d="M318.971 265.318H315.441V268.841H318.971V265.318Z" fill="#467CAE"></path>
  <path d="M318.971 271.236H315.441V274.758H318.971V271.236Z" fill="#467CAE"></path>
  <path d="M318.971 277.013H315.441V280.535H318.971V277.013Z" fill="#467CAE"></path>
  <path d="M318.971 282.931H315.441V286.453H318.971V282.931Z" fill="#467CAE"></path>
  <path d="M318.971 288.849H315.441V292.371H318.971V288.849Z" fill="#467CAE"></path>
  <path d="M318.971 294.767H315.441V298.289H318.971V294.767Z" fill="#467CAE"></path>
  <path d="M318.971 300.684H315.441V304.207H318.971V300.684Z" fill="#467CAE"></path>
  <path d="M318.971 306.461H315.441V309.984H318.971V306.461Z" fill="#467CAE"></path>
  <path d="M318.971 312.379H315.441V315.902H318.971V312.379Z" fill="#467CAE"></path>
  <path d="M318.971 318.297H315.441V321.82H318.971V318.297Z" fill="#467CAE"></path>
  <path d="M318.971 324.215H315.441V327.738H318.971V324.215Z" fill="#467CAE"></path>
  <path d="M318.971 330.133H315.441V333.655H318.971V330.133Z" fill="#467CAE"></path>
  <path d="M318.971 335.91H315.441V339.432H318.971V335.91Z" fill="#467CAE"></path>
  <path d="M318.971 341.828H315.441V345.35H318.971V341.828Z" fill="#467CAE"></path>
  <path d="M318.971 347.746H315.441V351.268H318.971V347.746Z" fill="#467CAE"></path>
  <path d="M313.464 241.787H309.934V245.31H313.464V241.787Z" fill="#467CAE"></path>
  <path d="M313.464 247.705H309.934V251.228H313.464V247.705Z" fill="#467CAE"></path>
  <path d="M313.464 253.482H309.934V257.005H313.464V253.482Z" fill="#467CAE"></path>
  <path d="M313.464 259.4H309.934V262.923H313.464V259.4Z" fill="#467CAE"></path>
  <path d="M313.464 265.318H309.934V268.841H313.464V265.318Z" fill="#467CAE"></path>
  <path d="M313.464 271.236H309.934V274.758H313.464V271.236Z" fill="#467CAE"></path>
  <path d="M313.464 277.013H309.934V280.535H313.464V277.013Z" fill="#467CAE"></path>
  <path d="M313.464 282.931H309.934V286.453H313.464V282.931Z" fill="#467CAE"></path>
  <path d="M313.464 288.849H309.934V292.371H313.464V288.849Z" fill="#467CAE"></path>
  <path d="M313.464 294.767H309.934V298.289H313.464V294.767Z" fill="#467CAE"></path>
  <path d="M313.464 300.684H309.934V304.207H313.464V300.684Z" fill="#467CAE"></path>
  <path d="M313.464 306.461H309.934V309.984H313.464V306.461Z" fill="#467CAE"></path>
  <path d="M313.464 312.379H309.934V315.902H313.464V312.379Z" fill="#467CAE"></path>
  <path d="M313.464 318.297H309.934V321.82H313.464V318.297Z" fill="#467CAE"></path>
  <path d="M313.464 324.215H309.934V327.738H313.464V324.215Z" fill="#467CAE"></path>
  <path d="M307.816 241.787H304.286V245.31H307.816V241.787Z" fill="#467CAE"></path>
  <path d="M307.816 247.705H304.286V251.228H307.816V247.705Z" fill="#467CAE"></path>
  <path d="M307.816 253.482H304.286V257.005H307.816V253.482Z" fill="#467CAE"></path>
  <path d="M307.816 259.4H304.286V262.923H307.816V259.4Z" fill="#467CAE"></path>
  <path d="M307.816 265.318H304.286V268.841H307.816V265.318Z" fill="#467CAE"></path>
  <path d="M307.816 271.236H304.286V274.758H307.816V271.236Z" fill="#467CAE"></path>
  <path d="M307.816 277.013H304.286V280.535H307.816V277.013Z" fill="#467CAE"></path>
  <path d="M307.816 282.931H304.286V286.453H307.816V282.931Z" fill="#467CAE"></path>
  <path d="M307.816 288.849H304.286V292.371H307.816V288.849Z" fill="#467CAE"></path>
  <path d="M307.816 294.767H304.286V298.289H307.816V294.767Z" fill="#467CAE"></path>
  <path d="M307.816 300.684H304.286V304.207H307.816V300.684Z" fill="#467CAE"></path>
  <path d="M307.816 306.461H304.286V309.984H307.816V306.461Z" fill="#467CAE"></path>
  <path d="M307.816 312.379H304.286V315.902H307.816V312.379Z" fill="#467CAE"></path>
  <path d="M302.309 241.787H298.779V245.31H302.309V241.787Z" fill="#467CAE"></path>
  <path d="M302.309 247.705H298.779V251.228H302.309V247.705Z" fill="#467CAE"></path>
  <path d="M302.309 253.482H298.779V257.005H302.309V253.482Z" fill="#467CAE"></path>
  <path d="M302.309 259.4H298.779V262.923H302.309V259.4Z" fill="#467CAE"></path>
  <path d="M302.309 265.318H298.779V268.841H302.309V265.318Z" fill="#467CAE"></path>
  <path d="M302.309 271.236H298.779V274.758H302.309V271.236Z" fill="#467CAE"></path>
  <path d="M302.309 277.013H298.779V280.535H302.309V277.013Z" fill="#467CAE"></path>
  <path d="M302.309 282.931H298.779V286.453H302.309V282.931Z" fill="#467CAE"></path>
  <path d="M302.309 288.849H298.779V292.371H302.309V288.849Z" fill="#467CAE"></path>
  <path d="M302.309 294.767H298.779V298.289H302.309V294.767Z" fill="#467CAE"></path>
  <path d="M302.309 300.684H298.779V304.207H302.309V300.684Z" fill="#467CAE"></path>
  <path d="M302.309 306.461H298.779V309.984H302.309V306.461Z" fill="#467CAE"></path>
  <path d="M628.481 239.956H624.951V243.478H628.481V239.956Z" fill="#467CAE"></path>
  <path d="M628.481 245.874H624.951V249.396H628.481V245.874Z" fill="#467CAE"></path>
  <path d="M628.481 251.792H624.951V255.314H628.481V251.792Z" fill="#467CAE"></path>
  <path d="M628.481 257.709H624.951V261.232H628.481V257.709Z" fill="#467CAE"></path>
  <path d="M628.481 263.486H624.951V267.009H628.481V263.486Z" fill="#467CAE"></path>
  <path d="M628.481 269.404H624.951V272.927H628.481V269.404Z" fill="#467CAE"></path>
  <path d="M628.481 275.322H624.951V278.845H628.481V275.322Z" fill="#467CAE"></path>
  <path d="M628.481 281.24H624.951V284.763H628.481V281.24Z" fill="#467CAE"></path>
  <path d="M628.481 287.158H624.951V290.68H628.481V287.158Z" fill="#467CAE"></path>
  <path d="M628.481 292.935H624.951V296.457H628.481V292.935Z" fill="#467CAE"></path>
  <path d="M628.481 298.853H624.951V302.375H628.481V298.853Z" fill="#467CAE"></path>
  <path d="M628.481 304.771H624.951V308.293H628.481V304.771Z" fill="#467CAE"></path>
  <path d="M628.481 310.688H624.951V314.211H628.481V310.688Z" fill="#467CAE"></path>
  <path d="M628.481 316.606H624.951V320.129H628.481V316.606Z" fill="#467CAE"></path>
  <path d="M628.481 322.383H624.951V325.906H628.481V322.383Z" fill="#467CAE"></path>
  <path d="M628.481 328.301H624.951V331.824H628.481V328.301Z" fill="#467CAE"></path>
  <path d="M628.481 334.219H624.951V337.742H628.481V334.219Z" fill="#467CAE"></path>
  <path d="M628.481 345.914H624.951V349.436H628.481V345.914Z" fill="#467CAE"></path>
  <path d="M628.481 351.832H624.951V355.354H628.481V351.832Z" fill="#467CAE"></path>
  <path d="M628.481 357.75H624.951V361.272H628.481V357.75Z" fill="#467CAE"></path>
  <path d="M628.481 363.667H624.951V367.19H628.481V363.667Z" fill="#467CAE"></path>
  <path d="M628.481 369.585H624.951V373.108H628.481V369.585Z" fill="#467CAE"></path>
  <path d="M622.975 239.956H619.445V243.478H622.975V239.956Z" fill="#467CAE"></path>
  <path d="M622.975 245.874H619.445V249.396H622.975V245.874Z" fill="#467CAE"></path>
  <path d="M622.975 251.792H619.445V255.314H622.975V251.792Z" fill="#467CAE"></path>
  <path d="M622.975 257.709H619.445V261.232H622.975V257.709Z" fill="#467CAE"></path>
  <path d="M622.975 263.486H619.445V267.009H622.975V263.486Z" fill="#467CAE"></path>
  <path d="M622.975 269.404H619.445V272.927H622.975V269.404Z" fill="#467CAE"></path>
  <path d="M622.975 275.322H619.445V278.845H622.975V275.322Z" fill="#467CAE"></path>
  <path d="M622.975 281.24H619.445V284.763H622.975V281.24Z" fill="#467CAE"></path>
  <path d="M622.975 287.158H619.445V290.68H622.975V287.158Z" fill="#467CAE"></path>
  <path d="M622.975 292.935H619.445V296.457H622.975V292.935Z" fill="#467CAE"></path>
  <path d="M622.975 298.853H619.445V302.375H622.975V298.853Z" fill="#467CAE"></path>
  <path d="M622.975 304.771H619.445V308.293H622.975V304.771Z" fill="#467CAE"></path>
  <path d="M622.975 310.688H619.445V314.211H622.975V310.688Z" fill="#467CAE"></path>
  <path d="M622.975 316.606H619.445V320.129H622.975V316.606Z" fill="#467CAE"></path>
  <path d="M622.975 322.383H619.445V325.906H622.975V322.383Z" fill="#467CAE"></path>
  <path d="M622.975 328.301H619.445V331.824H622.975V328.301Z" fill="#467CAE"></path>
  <path d="M622.975 363.667H619.445V367.19H622.975V363.667Z" fill="#467CAE"></path>
  <path d="M622.975 369.585H619.445V373.108H622.975V369.585Z" fill="#467CAE"></path>
  <path d="M617.327 239.956H613.797V243.478H617.327V239.956Z" fill="#467CAE"></path>
  <path d="M617.327 245.874H613.797V249.396H617.327V245.874Z" fill="#467CAE"></path>
  <path d="M617.327 251.792H613.797V255.314H617.327V251.792Z" fill="#467CAE"></path>
  <path d="M617.327 257.709H613.797V261.232H617.327V257.709Z" fill="#467CAE"></path>
  <path d="M617.327 263.486H613.797V267.009H617.327V263.486Z" fill="#467CAE"></path>
  <path d="M617.327 269.404H613.797V272.927H617.327V269.404Z" fill="#467CAE"></path>
  <path d="M617.327 275.322H613.797V278.845H617.327V275.322Z" fill="#467CAE"></path>
  <path d="M617.327 281.24H613.797V284.763H617.327V281.24Z" fill="#467CAE"></path>
  <path d="M617.327 287.158H613.797V290.68H617.327V287.158Z" fill="#467CAE"></path>
  <path d="M617.327 292.935H613.797V296.457H617.327V292.935Z" fill="#467CAE"></path>
  <path d="M617.327 298.853H613.797V302.375H617.327V298.853Z" fill="#467CAE"></path>
  <path d="M617.327 304.771H613.797V308.293H617.327V304.771Z" fill="#467CAE"></path>
  <path d="M617.327 310.688H613.797V314.211H617.327V310.688Z" fill="#467CAE"></path>
  <path d="M617.327 316.606H613.797V320.129H617.327V316.606Z" fill="#467CAE"></path>
  <path d="M617.327 322.383H613.797V325.906H617.327V322.383Z" fill="#467CAE"></path>
  <path d="M617.327 328.301H613.797V331.824H617.327V328.301Z" fill="#467CAE"></path>
  <path d="M617.327 340.137H613.797V343.659H617.327V340.137Z" fill="#467CAE"></path>
  <path d="M617.327 345.914H613.797V349.436H617.327V345.914Z" fill="#467CAE"></path>
  <path d="M617.327 351.832H613.797V355.354H617.327V351.832Z" fill="#467CAE"></path>
  <path d="M617.327 357.75H613.797V361.272H617.327V357.75Z" fill="#467CAE"></path>
  <path d="M617.327 369.585H613.797V373.108H617.327V369.585Z" fill="#467CAE"></path>
  <path d="M519.899 281.24H516.369V284.763H519.899V281.24Z" fill="#467CAE"></path>
  <path d="M519.899 287.158H516.369V290.68H519.899V287.158Z" fill="#467CAE"></path>
  <path d="M519.899 292.935H516.369V296.457H519.899V292.935Z" fill="#467CAE"></path>
  <path d="M519.899 298.853H516.369V302.375H519.899V298.853Z" fill="#467CAE"></path>
  <path d="M519.899 304.771H516.369V308.293H519.899V304.771Z" fill="#467CAE"></path>
  <path d="M519.899 310.688H516.369V314.211H519.899V310.688Z" fill="#467CAE"></path>
  <path d="M519.899 316.606H516.369V320.129H519.899V316.606Z" fill="#467CAE"></path>
  <path d="M519.899 322.383H516.369V325.906H519.899V322.383Z" fill="#467CAE"></path>
  <path d="M519.899 328.301H516.369V331.824H519.899V328.301Z" fill="#467CAE"></path>
  <path d="M519.899 334.219H516.369V337.742H519.899V334.219Z" fill="#467CAE"></path>
  <path d="M519.899 340.137H516.369V343.659H519.899V340.137Z" fill="#467CAE"></path>
  <path d="M519.899 345.914H516.369V349.436H519.899V345.914Z" fill="#467CAE"></path>
  <path d="M519.899 351.832H516.369V355.354H519.899V351.832Z" fill="#467CAE"></path>
  <path d="M519.899 363.667H516.369V367.19H519.899V363.667Z" fill="#467CAE"></path>
  <path d="M519.899 369.585H516.369V373.108H519.899V369.585Z" fill="#467CAE"></path>
  <path d="M519.899 375.362H516.369V378.885H519.899V375.362Z" fill="#467CAE"></path>
  <path d="M519.899 381.28H516.369V384.803H519.899V381.28Z" fill="#467CAE"></path>
  <path d="M519.899 393.116H516.369V396.639H519.899V393.116Z" fill="#467CAE"></path>
  <path d="M519.899 399.034H516.369V402.556H519.899V399.034Z" fill="#467CAE"></path>
  <path d="M519.899 404.811H516.369V408.333H519.899V404.811Z" fill="#467CAE"></path>
  <path d="M514.251 281.24H510.721V284.763H514.251V281.24Z" fill="#467CAE"></path>
  <path d="M514.251 287.158H510.721V290.68H514.251V287.158Z" fill="#467CAE"></path>
  <path d="M514.251 292.935H510.721V296.457H514.251V292.935Z" fill="#467CAE"></path>
  <path d="M514.251 298.853H510.721V302.375H514.251V298.853Z" fill="#467CAE"></path>
  <path d="M514.251 304.771H510.721V308.293H514.251V304.771Z" fill="#467CAE"></path>
  <path d="M514.251 310.688H510.721V314.211H514.251V310.688Z" fill="#467CAE"></path>
  <path d="M514.251 316.606H510.721V320.129H514.251V316.606Z" fill="#467CAE"></path>
  <path d="M514.251 322.383H510.721V325.906H514.251V322.383Z" fill="#467CAE"></path>
  <path d="M514.251 328.301H510.721V331.824H514.251V328.301Z" fill="#467CAE"></path>
  <path d="M514.251 334.219H510.721V337.742H514.251V334.219Z" fill="#467CAE"></path>
  <path d="M514.251 340.137H510.721V343.659H514.251V340.137Z" fill="#467CAE"></path>
  <path d="M514.251 345.914H510.721V349.436H514.251V345.914Z" fill="#467CAE"></path>
  <path d="M514.251 351.832H510.721V355.354H514.251V351.832Z" fill="#467CAE"></path>
  <path d="M514.251 369.585H510.721V373.108H514.251V369.585Z" fill="#467CAE"></path>
  <path d="M514.251 375.362H510.721V378.885H514.251V375.362Z" fill="#467CAE"></path>
  <path d="M514.251 387.198H510.721V390.721H514.251V387.198Z" fill="#467CAE"></path>
  <path d="M514.251 393.116H510.721V396.639H514.251V393.116Z" fill="#467CAE"></path>
  <path d="M514.251 399.034H510.721V402.556H514.251V399.034Z" fill="#467CAE"></path>
  <path d="M514.251 404.811H510.721V408.333H514.251V404.811Z" fill="#467CAE"></path>
  <path d="M508.603 281.24H505.073V284.763H508.603V281.24Z" fill="#467CAE"></path>
  <path d="M508.603 287.158H505.073V290.68H508.603V287.158Z" fill="#467CAE"></path>
  <path d="M508.603 292.935H505.073V296.457H508.603V292.935Z" fill="#467CAE"></path>
  <path d="M508.603 298.853H505.073V302.375H508.603V298.853Z" fill="#467CAE"></path>
  <path d="M508.603 304.771H505.073V308.293H508.603V304.771Z" fill="#467CAE"></path>
  <path d="M508.603 310.688H505.073V314.211H508.603V310.688Z" fill="#467CAE"></path>
  <path d="M508.603 316.606H505.073V320.129H508.603V316.606Z" fill="#467CAE"></path>
  <path d="M508.603 322.383H505.073V325.906H508.603V322.383Z" fill="#467CAE"></path>
  <path d="M508.603 328.301H505.073V331.824H508.603V328.301Z" fill="#467CAE"></path>
  <path d="M508.603 334.219H505.073V337.742H508.603V334.219Z" fill="#467CAE"></path>
  <path d="M508.603 340.137H505.073V343.659H508.603V340.137Z" fill="#467CAE"></path>
  <path d="M508.603 345.914H505.073V349.436H508.603V345.914Z" fill="#467CAE"></path>
  <path d="M508.603 351.832H505.073V355.354H508.603V351.832Z" fill="#467CAE"></path>
  <path d="M508.603 357.75H505.073V361.272H508.603V357.75Z" fill="#467CAE"></path>
  <path d="M508.603 369.585H505.073V373.108H508.603V369.585Z" fill="#467CAE"></path>
  <path d="M508.603 381.28H505.073V384.803H508.603V381.28Z" fill="#467CAE"></path>
  <path d="M508.603 387.198H505.073V390.721H508.603V387.198Z" fill="#467CAE"></path>
  <path d="M508.603 393.116H505.073V396.639H508.603V393.116Z" fill="#467CAE"></path>
  <path d="M508.603 399.034H505.073V402.556H508.603V399.034Z" fill="#467CAE"></path>
  <path d="M508.603 404.811H505.073V408.333H508.603V404.811Z" fill="#467CAE"></path>
  <path d="M542.632 314.775H539.102V318.297H542.632V314.775Z" fill="#467CAE"></path>
  <path d="M542.632 320.693H539.102V324.215H542.632V320.693Z" fill="#467CAE"></path>
  <path d="M542.632 326.61H539.102V330.133H542.632V326.61Z" fill="#467CAE"></path>
  <path d="M542.632 332.387H539.102V335.91H542.632V332.387Z" fill="#467CAE"></path>
  <path d="M542.632 338.305H539.102V341.828H542.632V338.305Z" fill="#467CAE"></path>
  <path d="M542.632 344.223H539.102V347.746H542.632V344.223Z" fill="#467CAE"></path>
  <path d="M542.632 361.836H539.102V365.358H542.632V361.836Z" fill="#467CAE"></path>
  <path d="M542.632 367.754H539.102V371.276H542.632V367.754Z" fill="#467CAE"></path>
  <path d="M542.632 373.672H539.102V377.194H542.632V373.672Z" fill="#467CAE"></path>
  <path d="M542.632 379.589H539.102V383.112H542.632V379.589Z" fill="#467CAE"></path>
  <path d="M542.632 385.507H539.102V389.03H542.632V385.507Z" fill="#467CAE"></path>
  <path d="M542.632 391.284H539.102V394.807H542.632V391.284Z" fill="#467CAE"></path>
  <path d="M542.632 397.202H539.102V400.725H542.632V397.202Z" fill="#467CAE"></path>
  <path d="M536.984 314.775H533.454V318.297H536.984V314.775Z" fill="#467CAE"></path>
  <path d="M536.984 320.693H533.454V324.215H536.984V320.693Z" fill="#467CAE"></path>
  <path d="M536.984 326.61H533.454V330.133H536.984V326.61Z" fill="#467CAE"></path>
  <path d="M536.984 332.387H533.454V335.91H536.984V332.387Z" fill="#467CAE"></path>
  <path d="M536.984 338.305H533.454V341.828H536.984V338.305Z" fill="#467CAE"></path>
  <path d="M536.984 344.223H533.454V347.746H536.984V344.223Z" fill="#467CAE"></path>
  <path d="M536.984 361.836H533.454V365.358H536.984V361.836Z" fill="#467CAE"></path>
  <path d="M536.984 367.754H533.454V371.276H536.984V367.754Z" fill="#467CAE"></path>
  <path d="M536.984 373.672H533.454V377.194H536.984V373.672Z" fill="#467CAE"></path>
  <path d="M536.984 379.589H533.454V383.112H536.984V379.589Z" fill="#467CAE"></path>
  <path d="M536.984 385.507H533.454V389.03H536.984V385.507Z" fill="#467CAE"></path>
  <path d="M536.984 391.284H533.454V394.807H536.984V391.284Z" fill="#467CAE"></path>
  <path d="M536.984 403.12H533.454V406.643H536.984V403.12Z" fill="#467CAE"></path>
  <path d="M351.306 288.849H347.776V292.371H351.306V288.849Z" fill="#467CAE"></path>
  <path d="M351.306 294.767H347.776V298.289H351.306V294.767Z" fill="#467CAE"></path>
  <path d="M351.306 300.684H347.776V304.207H351.306V300.684Z" fill="#467CAE"></path>
  <path d="M351.306 306.461H347.776V309.984H351.306V306.461Z" fill="#467CAE"></path>
  <path d="M351.306 312.379H347.776V315.902H351.306V312.379Z" fill="#467CAE"></path>
  <path d="M351.306 318.297H347.776V321.82H351.306V318.297Z" fill="#467CAE"></path>
  <path d="M351.306 324.215H347.776V327.738H351.306V324.215Z" fill="#467CAE"></path>
  <path d="M351.306 330.133H347.776V333.655H351.306V330.133Z" fill="#467CAE"></path>
  <path d="M351.306 335.91H347.776V339.432H351.306V335.91Z" fill="#467CAE"></path>
  <path d="M351.306 341.828H347.776V345.35H351.306V341.828Z" fill="#467CAE"></path>
  <path d="M351.306 347.746H347.776V351.268H351.306V347.746Z" fill="#467CAE"></path>
  <path d="M351.306 359.581H347.776V363.104H351.306V359.581Z" fill="#467CAE"></path>
  <path d="M351.306 365.358H347.776V368.881H351.306V365.358Z" fill="#467CAE"></path>
  <path d="M351.306 371.276H347.776V374.799H351.306V371.276Z" fill="#467CAE"></path>
  <path d="M351.306 377.194H347.776V380.717H351.306V377.194Z" fill="#467CAE"></path>
  <path d="M351.306 383.112H347.776V386.634H351.306V383.112Z" fill="#467CAE"></path>
  <path d="M351.306 388.889H347.776V392.411H351.306V388.889Z" fill="#467CAE"></path>
  <path d="M351.306 394.807H347.776V398.329H351.306V394.807Z" fill="#467CAE"></path>
  <path d="M351.306 400.725H347.776V404.247H351.306V400.725Z" fill="#467CAE"></path>
  <path d="M345.658 288.849H342.128V292.371H345.658V288.849Z" fill="#467CAE"></path>
  <path d="M345.658 294.767H342.128V298.289H345.658V294.767Z" fill="#467CAE"></path>
  <path d="M345.658 300.684H342.128V304.207H345.658V300.684Z" fill="#467CAE"></path>
  <path d="M345.658 306.461H342.128V309.984H345.658V306.461Z" fill="#467CAE"></path>
  <path d="M345.658 312.379H342.128V315.902H345.658V312.379Z" fill="#467CAE"></path>
  <path d="M345.658 318.297H342.128V321.82H345.658V318.297Z" fill="#467CAE"></path>
  <path d="M345.658 324.215H342.128V327.738H345.658V324.215Z" fill="#467CAE"></path>
  <path d="M345.658 330.133H342.128V333.655H345.658V330.133Z" fill="#467CAE"></path>
  <path d="M345.658 335.91H342.128V339.432H345.658V335.91Z" fill="#467CAE"></path>
  <path d="M345.658 341.828H342.128V345.35H345.658V341.828Z" fill="#467CAE"></path>
  <path d="M345.658 347.746H342.128V351.268H345.658V347.746Z" fill="#467CAE"></path>
  <path d="M345.658 353.663H342.128V357.186H345.658V353.663Z" fill="#467CAE"></path>
  <path d="M345.658 359.581H342.128V363.104H345.658V359.581Z" fill="#467CAE"></path>
  <path d="M345.658 365.358H342.128V368.881H345.658V365.358Z" fill="#467CAE"></path>
  <path d="M345.658 371.276H342.128V374.799H345.658V371.276Z" fill="#467CAE"></path>
  <path d="M345.658 377.194H342.128V380.717H345.658V377.194Z" fill="#467CAE"></path>
  <path d="M345.658 383.112H342.128V386.634H345.658V383.112Z" fill="#467CAE"></path>
  <path d="M345.658 388.889H342.128V392.411H345.658V388.889Z" fill="#467CAE"></path>
  <path d="M345.658 394.807H342.128V398.329H345.658V394.807Z" fill="#467CAE"></path>
  <path d="M345.658 400.725H342.128V404.247H345.658V400.725Z" fill="#467CAE"></path>
  <path d="M378.84 311.816H375.31V315.338H378.84V311.816Z" fill="#467CAE"></path>
  <path d="M378.84 317.734H375.31V321.256H378.84V317.734Z" fill="#467CAE"></path>
  <path d="M378.84 323.51H375.31V327.033H378.84V323.51Z" fill="#467CAE"></path>
  <path d="M378.84 329.428H375.31V332.951H378.84V329.428Z" fill="#467CAE"></path>
  <path d="M378.84 335.346H375.31V338.869H378.84V335.346Z" fill="#467CAE"></path>
  <path d="M378.84 341.264H375.31V344.787H378.84V341.264Z" fill="#467CAE"></path>
  <path d="M378.84 347.182H375.31V350.705H378.84V347.182Z" fill="#467CAE"></path>
  <path d="M378.84 352.959H375.31V356.482H378.84V352.959Z" fill="#467CAE"></path>
  <path d="M378.84 358.877H375.31V362.399H378.84V358.877Z" fill="#467CAE"></path>
  <path d="M378.84 364.795H375.31V368.317H378.84V364.795Z" fill="#467CAE"></path>
  <path d="M373.192 311.816H369.662V315.338H373.192V311.816Z" fill="#467CAE"></path>
  <path d="M373.192 317.734H369.662V321.256H373.192V317.734Z" fill="#467CAE"></path>
  <path d="M373.192 323.51H369.662V327.033H373.192V323.51Z" fill="#467CAE"></path>
  <path d="M373.192 329.428H369.662V332.951H373.192V329.428Z" fill="#467CAE"></path>
  <path d="M373.192 335.346H369.662V338.869H373.192V335.346Z" fill="#467CAE"></path>
  <path d="M373.192 341.264H369.662V344.787H373.192V341.264Z" fill="#467CAE"></path>
  <path d="M373.192 347.182H369.662V350.705H373.192V347.182Z" fill="#467CAE"></path>
  <path d="M373.192 352.959H369.662V356.482H373.192V352.959Z" fill="#467CAE"></path>
  <path d="M373.192 358.877H369.662V362.399H373.192V358.877Z" fill="#467CAE"></path>
  <path d="M406.515 88.3453H400.584V416.787H406.515V88.3453Z" fill="#053D72"></path>
  <path d="M517.639 88.3453H511.709V416.787H517.639V88.3453Z" fill="#053D72"></path>
  <path d="M628.764 88.3453H622.833V416.787H628.764V88.3453Z" fill="#053D72"></path>
  <path d="M251.336 461.171H202.481V391.002C202.481 387.621 205.305 384.803 208.694 384.803H245.123C248.512 384.803 251.336 387.621 251.336 391.002V461.171V461.171Z" fill="#1E4F7D"></path>
  <path d="M251.336 395.089H202.481V400.584H251.336V395.089Z" fill="#083A69"></path>
  <path d="M242.441 452.013H230.298C228.462 452.013 226.909 453.563 226.909 455.394V461.312H245.829V455.394C245.829 453.422 244.276 452.013 242.441 452.013Z" fill="#E0E0E0"></path>
  <path d="M245.829 461.171H232.274C231.145 461.171 230.156 460.185 230.156 459.058C230.156 457.931 231.145 456.944 232.274 456.944H245.829C246.959 456.944 247.947 457.931 247.947 459.058C248.089 460.185 247.1 461.171 245.829 461.171Z" fill="#E6E6E6"></path>
  <path opacity="0.2" d="M455.088 73.8325C473.491 73.8325 488.411 58.9447 488.411 40.5797C488.411 22.2147 473.491 7.3269 455.088 7.3269C436.684 7.3269 421.764 22.2147 421.764 40.5797C421.764 58.9447 436.684 73.8325 455.088 73.8325Z" fill="#E0E0E0"></path>
  <path opacity="0.2" d="M455.087 68.7601C470.684 68.7601 483.327 56.1434 483.327 40.5798C483.327 25.0162 470.684 12.3994 455.087 12.3994C439.491 12.3994 426.847 25.0162 426.847 40.5798C426.847 56.1434 439.491 68.7601 455.087 68.7601Z" fill="#F0F0F0"></path>
  <path d="M456.358 21.2762V41.0025L469.49 33.5347" stroke="#E0E0E0" stroke-width="2" stroke-miterlimit="10" stroke-linecap="round" stroke-linejoin="round"></path>
  <path d="M353 525C504.208 525 626.787 517.872 626.787 509.078C626.787 500.285 504.208 493.156 353 493.156C201.792 493.156 79.2131 500.285 79.2131 509.078C79.2131 517.872 201.792 525 353 525Z" fill="#083A69"></path>
  <path d="M579.485 464.694C579.767 463.285 584.709 429.187 574.684 417.492C572.425 414.956 569.742 413.547 566.494 413.406C546.444 412.983 543.761 428.905 543.761 429.187L546.162 429.609C546.303 429.046 548.562 415.519 566.494 415.942C569.036 415.942 571.154 417.069 572.99 419.183C582.168 430.173 577.226 464.13 577.226 464.553L579.485 464.694Z" fill="#407BFF"></path>
  <path d="M580.756 463.144L583.156 463.003C583.156 462.721 582.309 431.723 597.7 425.241C612.667 418.901 619.445 431.864 619.727 432.427L621.845 431.3C621.704 431.159 613.797 415.801 596.711 422.987C579.908 430.173 580.756 461.735 580.756 463.144Z" fill="#407BFF"></path>
  <path d="M580.756 465.539C580.756 464.976 580.897 415.942 590.498 401.57C599.676 387.762 614.502 394.243 615.208 394.525L616.197 392.411C616.056 392.27 598.829 384.803 588.522 400.302C578.496 415.237 578.355 463.567 578.355 465.539H580.756Z" fill="#407BFF"></path>
  <path d="M563.671 414.533C563.671 414.533 572.425 417.774 569.742 425.382C567.059 432.991 539.525 445.39 539.525 445.39C539.525 445.39 527.947 434.823 538.537 417.633C549.409 400.443 563.529 409.179 563.671 414.533Z" fill="#407BFF"></path>
  <path d="M590.922 399.034C590.922 399.034 584.709 398.329 585.274 394.666C585.839 390.861 609.419 381.28 623.257 396.92C623.257 396.92 614.361 412.138 601.512 412.419C588.522 412.419 590.922 399.034 590.922 399.034Z" fill="#407BFF"></path>
  <path d="M597.276 424.114C597.276 424.114 593.04 420.733 597.558 419.042C602.218 417.351 624.81 417.774 625.092 440.177C625.092 440.177 598.688 444.545 595.44 436.091C592.193 427.496 597.276 424.114 597.276 424.114Z" fill="#407BFF"></path>
  <path opacity="0.2" d="M563.671 414.533C563.671 414.533 572.425 417.774 569.742 425.382C567.059 432.991 539.525 445.39 539.525 445.39C539.525 445.39 527.947 434.823 538.537 417.633C549.409 400.443 563.529 409.179 563.671 414.533Z" fill="black"></path>
  <path opacity="0.2" d="M590.922 399.034C590.922 399.034 584.709 398.329 585.274 394.666C585.839 390.861 609.419 381.28 623.257 396.92C623.257 396.92 614.361 412.138 601.512 412.419C588.522 412.419 590.922 399.034 590.922 399.034Z" fill="black"></path>
  <path opacity="0.2" d="M597.276 424.114C597.276 424.114 593.04 420.733 597.558 419.042C602.218 417.351 624.81 417.774 625.092 440.177C625.092 440.177 598.688 444.545 595.44 436.091C592.193 427.496 597.276 424.114 597.276 424.114Z" fill="black"></path>
  <path d="M559.011 510.205H599.959L604.336 465.539H554.634L559.011 510.205Z" fill="#407BFF"></path>
  <path opacity="0.5" d="M559.011 510.205H599.959L604.336 465.539H554.634L559.011 510.205Z" fill="white"></path>
  <path d="M606.454 460.608H552.375V470.471H606.454V460.608Z" fill="#407BFF"></path>
  <path opacity="0.2" d="M606.454 460.608H552.375V470.471H606.454V460.608Z" fill="white"></path>
  <path d="M512.697 478.221L472.032 474.275V417.21H455.935V474.275L415.128 478.221C411.033 478.643 407.927 482.025 407.927 486.111V492.17H462.43H465.395H519.898V486.111C519.898 482.025 516.792 478.643 512.697 478.221Z" fill="#263238"></path>
  <path opacity="0.2" d="M512.697 478.221L472.032 474.275V417.21H455.935V474.275L415.128 478.221C411.033 478.643 407.927 482.025 407.927 486.111V492.17H462.43H465.395H519.898V486.111C519.898 482.025 516.792 478.643 512.697 478.221Z" fill="white"></path>
  <path d="M412.304 510.346C418.153 510.346 422.894 505.615 422.894 499.779C422.894 493.942 418.153 489.211 412.304 489.211C406.455 489.211 401.714 493.942 401.714 499.779C401.714 505.615 406.455 510.346 412.304 510.346Z" fill="#263238"></path>
  <path d="M515.521 510.346C521.37 510.346 526.111 505.615 526.111 499.779C526.111 493.942 521.37 489.211 515.521 489.211C509.672 489.211 504.931 493.942 504.931 499.779C504.931 505.615 509.672 510.346 515.521 510.346Z" fill="#263238"></path>
  <path d="M468.925 429.469H458.9C455.652 429.469 453.111 426.792 453.111 423.692V378.744H474.855V423.692C474.855 426.792 472.173 429.469 468.925 429.469Z" fill="#263238"></path>
  <path opacity="0.3" d="M468.925 429.469H458.9C455.652 429.469 453.111 426.792 453.111 423.692V378.744H474.855V423.692C474.855 426.792 472.173 429.469 468.925 429.469Z" fill="white"></path>
  <path d="M502.531 289.412C502.531 289.412 505.637 365.499 484.316 378.603H508.602C508.602 378.603 527.382 352.677 522.016 289.412H502.531V289.412Z" fill="#263238"></path>
  <path opacity="0.3" d="M502.531 289.412C502.531 289.412 505.637 365.499 484.316 378.603H508.602C508.602 378.603 527.382 352.677 522.016 289.412H502.531V289.412Z" fill="white"></path>
  <path d="M415.269 367.895H509.732C513.686 367.895 516.792 370.994 516.792 374.94V384.38H408.209V374.94C408.209 371.135 411.457 367.895 415.269 367.895Z" fill="#263238"></path>
  <path d="M406.515 376.208H518.486C520.04 376.208 521.31 377.476 521.31 379.026V381.562C521.31 383.112 520.04 384.38 518.486 384.38H406.515C404.961 384.38 403.691 383.112 403.691 381.562V379.026C403.691 377.476 404.961 376.208 406.515 376.208Z" fill="#263238"></path>
  <path opacity="0.6" d="M406.515 376.208H518.486C520.04 376.208 521.31 377.476 521.31 379.026V381.562C521.31 383.112 520.04 384.38 518.486 384.38H406.515C404.961 384.38 403.691 383.112 403.691 381.562V379.026C403.691 377.476 404.961 376.208 406.515 376.208Z" fill="white"></path>
  <path d="M528.088 304.911H489.258C477.821 304.911 468.643 295.753 468.643 284.34V269.122C468.643 257.709 477.821 248.551 489.258 248.551H528.088C539.525 248.551 548.703 257.709 548.703 269.122V284.34C548.562 295.612 539.384 304.911 528.088 304.911Z" fill="#195792"></path>
  <path d="M371.497 186.413L363.731 165.982C363.731 165.982 367.12 162.882 364.72 159.783C362.46 156.683 348.199 147.947 345.516 149.497C342.975 151.047 337.186 156.824 340.292 160.064C343.398 163.305 357.236 168.659 357.236 168.659L364.155 195.431L371.497 186.413Z" fill="#E4897B"></path>
  <path d="M425.577 225.161C425.577 225.161 390.277 217.975 386.464 216.143C382.652 214.452 368.391 172.886 368.391 172.886L357.518 177.959C357.518 177.959 366.273 219.525 375.168 229.529C384.064 239.392 422.329 247.846 422.329 247.846L425.577 225.161Z" fill="#407BFF"></path>
  <path opacity="0.2" d="M422.47 247.846C422.47 247.846 422.188 247.846 421.764 247.705C419.788 247.283 413.857 245.873 406.656 243.76C395.078 240.378 380.393 235.306 375.31 229.529C366.414 219.666 357.66 177.959 357.66 177.959L368.532 172.886C368.532 172.886 382.793 214.311 386.606 216.143C390.418 217.834 425.718 225.161 425.718 225.161L422.47 247.846Z" fill="black"></path>
  <path d="M368.673 172.182L370.932 176.55L356.954 181.34L357.377 176.127L368.673 172.182Z" fill="#407BFF"></path>
  <path opacity="0.2" d="M422.753 247.283C420.776 247.001 414.704 246.014 407.362 244.465C411.598 237.279 423.741 233.615 423.741 233.615L422.753 247.283Z" fill="black"></path>
  <path d="M475.279 196.558C475.279 196.558 477.397 216.002 470.055 220.793C462.854 225.584 427.271 219.948 423.177 212.198C419.082 204.308 434.331 183.031 434.331 183.031L475.279 196.558Z" fill="#263238"></path>
  <path d="M331.255 452.858L340.575 455.113L345.234 442.291L349.47 430.737L338.88 426.228L334.785 440.318L331.255 452.858Z" fill="#E4897B"></path>
  <path opacity="0.2" d="M334.785 440.318L345.234 442.291L349.47 430.737L338.88 426.228L334.785 440.318Z" fill="black"></path>
  <path d="M335.774 433.555L348.623 438.345C348.623 438.345 382.935 352.677 389.995 352.395C397.055 352.114 468.925 385.085 486.999 366.767C505.072 348.45 478.951 304.489 478.951 304.489C478.951 304.489 435.602 298.289 432.355 308.152C431.649 309.984 431.084 313.788 430.519 316.888C429.954 319.847 429.672 322.383 429.672 322.383C428.401 322.101 384.77 310.829 367.685 322.383C350.317 334.078 335.774 433.555 335.774 433.555Z" fill="#407BFF"></path>
  <path opacity="0.6" d="M335.774 433.555L348.623 438.345C348.623 438.345 382.935 352.677 389.995 352.395C397.055 352.114 468.925 385.085 486.999 366.767C505.072 348.45 478.951 304.489 478.951 304.489C478.951 304.489 435.602 298.289 432.355 308.152C431.649 309.984 431.084 313.788 430.519 316.888C429.954 319.847 429.672 322.383 429.672 322.383C428.401 322.101 384.77 310.829 367.685 322.383C350.317 334.078 335.774 433.555 335.774 433.555Z" fill="white"></path>
  <path d="M409.904 489.493L419.082 487.097L417.387 473.853L415.693 461.735L404.256 462.721L407.221 476.952L409.904 489.493Z" fill="#E4897B"></path>
  <path opacity="0.2" d="M407.221 477.234L417.387 474.134L415.693 461.876L404.256 462.862L407.221 477.234Z" fill="black"></path>
  <path d="M353.989 433.555L335.209 427.214L334.362 434.964L348.623 439.895L353.989 433.555Z" fill="#407BFF"></path>
  <path d="M455.935 371.135C455.935 371.135 452.97 371.135 407.503 369.022C407.503 369.022 414.281 425.664 417.952 468.217L404.397 470.471C404.397 470.471 371.921 379.589 372.203 365.076C372.486 350.564 389.147 346.337 389.147 346.337C389.147 346.337 421.623 365.217 455.935 371.135Z" fill="#407BFF"></path>
  <path opacity="0.6" d="M455.935 371.135C455.935 371.135 452.97 371.135 407.503 369.022C407.503 369.022 414.281 425.664 417.952 468.217L404.397 470.471C404.397 470.471 371.921 379.589 372.203 365.076C372.486 350.564 389.147 346.337 389.147 346.337C389.147 346.337 421.623 365.217 455.935 371.135Z" fill="white"></path>
  <path opacity="0.1" d="M455.935 371.135C455.935 371.135 452.97 371.135 407.503 369.022C407.503 369.022 414.281 425.664 417.952 468.217L404.397 470.471C404.397 470.471 371.921 379.589 372.203 365.076C372.486 350.564 389.147 346.337 389.147 346.337C389.147 346.337 421.623 365.217 455.935 371.135Z" fill="black"></path>
  <path d="M420.07 464.13L401.291 466.244L404.962 473.571L420.07 471.598V464.13Z" fill="#407BFF"></path>
  <path opacity="0.1" d="M429.672 322.242L455.088 327.456C455.088 327.456 441.109 319.706 430.519 316.747C430.095 319.706 429.672 322.242 429.672 322.242Z" fill="black"></path>
  <path d="M477.962 297.725L478.951 304.348L432.354 308.011L431.225 299.98L477.962 297.725Z" fill="#263238"></path>
  <path opacity="0.2" d="M477.962 297.725L478.951 304.348L432.354 308.011L431.225 299.98L477.962 297.725Z" fill="black"></path>
  <path d="M463.235 308.888L465.482 308.657L464.283 297.023L462.036 297.254L463.235 308.888Z" fill="#407BFF"></path>
  <path d="M442.591 307.789L452.736 307.139L452.238 299.405L442.092 300.056L442.591 307.789Z" fill="white"></path>
  <path d="M434.756 310.27L437.003 310.04L435.804 298.407L433.557 298.638L434.756 310.27Z" fill="#407BFF"></path>
  <path opacity="0.6" d="M463.235 308.888L465.482 308.657L464.283 297.023L462.036 297.254L463.235 308.888Z" fill="white"></path>
  <path opacity="0.6" d="M434.756 310.27L437.003 310.04L435.804 298.407L433.557 298.638L434.756 310.27Z" fill="white"></path>
  <path d="M424.73 224.597C424.73 224.597 436.59 228.261 451.558 227.556C466.525 226.852 484.316 234.038 484.316 234.038L477.962 297.725L431.225 300.121C431.225 299.98 415.41 246.86 424.73 224.597Z" fill="#407BFF"></path>
  <path d="M432.213 188.667C432.213 188.667 434.896 157.81 460.736 168.941C493.212 183.031 467.372 220.652 451.558 213.043C435.602 205.294 432.213 188.667 432.213 188.667Z" fill="#263238"></path>
  <path opacity="0.2" d="M439.415 229.247L440.121 246.719L445.91 238.547C445.91 238.547 443.792 257.85 445.063 268.418C445.063 268.418 446.192 249.537 448.734 238.547L454.947 246.719L463.842 229.388C463.983 229.388 449.581 224.175 439.415 229.247Z" fill="black"></path>
  <path d="M447.463 232.488L460.877 228.684C452.687 223.047 456.782 210.366 456.782 210.366L443.509 215.016C444.215 217.271 444.639 219.102 444.921 220.652C446.333 228.965 442.521 229.529 442.521 229.529L447.463 232.488Z" fill="#E4897B"></path>
  <path opacity="0.2" d="M443.509 215.016C444.215 217.271 444.639 219.102 444.921 220.652C451.275 218.116 456.782 210.366 456.782 210.366L443.509 215.016Z" fill="black"></path>
  <path d="M452.264 175.423C440.544 172.886 435.32 178.241 431.79 190.217C427.413 205.012 428.401 216.566 443.792 216.566C464.689 216.566 471.749 179.791 452.264 175.423Z" fill="#E4897B"></path>
  <path d="M439.415 191.204C439.415 191.204 437.155 193.881 434.896 195.29C434.896 195.29 435.602 197.122 437.72 197.263L439.415 191.204Z" fill="#DE5753"></path>
  <path d="M448.464 190.346C447.858 190.198 447.17 190.873 446.928 191.856C446.686 192.838 446.981 193.755 447.587 193.904C448.192 194.053 448.88 193.377 449.122 192.394C449.364 191.412 449.07 190.495 448.464 190.346Z" fill="#263238"></path>
  <path d="M448.734 190.499L446.898 189.231C446.898 189.09 447.463 191.204 448.734 190.499Z" fill="#263238"></path>
  <path d="M436.585 187.216C435.979 187.067 435.292 187.743 435.05 188.725C434.807 189.708 435.102 190.625 435.708 190.773C436.314 190.922 437.001 190.246 437.243 189.264C437.485 188.282 437.191 187.365 436.585 187.216Z" fill="#263238"></path>
  <path d="M436.873 187.399L434.896 185.99C434.896 185.99 435.602 187.963 436.873 187.399Z" fill="#263238"></path>
  <path d="M448.734 183.736C448.734 183.736 452.123 184.018 453.393 186.695" stroke="#263238" stroke-width="0.7247" stroke-miterlimit="10" stroke-linecap="round" stroke-linejoin="round"></path>
  <path d="M440.403 181.341C440.403 181.341 438.567 180.072 435.461 181.341" stroke="#263238" stroke-width="0.7247" stroke-miterlimit="10" stroke-linecap="round" stroke-linejoin="round"></path>
  <path d="M460.595 197.967C460.595 197.967 457.206 187.118 459.747 179.932C459.747 179.932 438.567 165.278 432.213 188.667C432.213 188.667 434.614 167.25 454.947 171.196C475.279 175.141 468.643 204.73 456.217 211.212C456.217 211.071 462.713 204.73 460.595 197.967Z" fill="#263238"></path>
  <path d="M458.194 200.081C458.759 198.249 461.301 195.431 464.831 196.558C468.361 197.826 468.502 205.576 459.041 205.435C457.629 205.435 457.206 204.026 458.194 200.081Z" fill="#E4897B"></path>
  <path d="M435.743 201.771C436.167 203.321 436.308 206.139 436.308 206.139C436.591 206.139 436.873 206.139 437.014 206.28C440.544 206.562 442.239 205.576 443.086 204.308C443.509 203.603 443.792 202.899 443.792 202.335C443.933 201.63 443.792 201.067 443.792 201.067C441.815 202.053 438.567 202.053 436.732 201.912C436.167 201.771 435.743 201.771 435.743 201.771Z" fill="#263238"></path>
  <path d="M436.873 201.771L437.155 203.039C440.403 203.321 442.803 203.039 443.933 202.194C444.074 201.49 443.933 200.926 443.933 200.926C441.956 201.912 438.567 201.912 436.873 201.771Z" fill="white"></path>
  <path d="M437.014 206.139C440.544 206.421 442.239 205.435 443.086 204.167C441.956 204.167 440.403 204.167 439.132 204.589C438.144 205.012 437.579 205.576 437.014 206.139Z" fill="#DE5753"></path>
  <path d="M452.264 176.409C452.264 176.409 452.687 196.699 464.972 199.235C477.256 201.63 463.842 173.027 463.842 173.027C463.842 173.027 445.627 161.192 433.484 169.505C421.341 177.818 432.213 188.667 432.213 188.667C432.213 188.667 434.755 173.45 452.264 176.409Z" fill="#263238"></path>
  <path d="M452.687 175C452.687 175 448.31 187.822 456.923 194.585" stroke="#263238" stroke-width="0.5" stroke-miterlimit="10" stroke-linecap="round" stroke-linejoin="round"></path>
  <path d="M459.579 208.613C462.938 209.871 466.927 207.525 468.489 203.372C470.052 199.219 468.596 194.833 465.237 193.575C461.879 192.316 457.89 194.663 456.327 198.815C454.765 202.968 456.221 207.354 459.579 208.613Z" fill="#407BFF"></path>
  <path opacity="0.4" d="M459.579 208.613C462.938 209.871 466.927 207.525 468.489 203.372C470.052 199.219 468.596 194.833 465.237 193.575C461.879 192.316 457.89 194.663 456.327 198.815C454.765 202.968 456.221 207.354 459.579 208.613Z" fill="black"></path>
  <path d="M464.548 196.558C464.548 196.558 469.631 173.873 458.194 167.955C458.194 167.955 460.595 168.237 462.007 168.659C463.419 169.082 472.597 178.241 467.937 198.671L464.548 196.558Z" fill="#407BFF"></path>
  <path opacity="0.2" d="M464.548 196.558C464.548 196.558 469.631 173.873 458.194 167.955C458.194 167.955 460.595 168.237 462.007 168.659C463.419 169.082 472.597 178.241 467.937 198.671L464.548 196.558Z" fill="black"></path>
  <path d="M443.227 209.521C442.944 209.521 442.662 209.38 442.38 209.38L442.662 207.971C452.828 209.662 460.453 204.167 460.594 204.167L461.442 205.294C461.159 205.576 453.676 210.93 443.227 209.521Z" fill="#407BFF"></path>
  <g opacity="0.2">
    <path opacity="0.2" d="M443.227 209.521C442.944 209.521 442.662 209.38 442.38 209.38L442.662 207.971C452.828 209.662 460.453 204.167 460.594 204.167L461.442 205.294C461.159 205.576 453.676 210.93 443.227 209.521Z" fill="black"></path>
  </g>
  <path d="M462.105 206.235C464.368 207.083 467.047 205.526 468.089 202.758C469.13 199.989 468.14 197.058 465.877 196.21C463.614 195.362 460.934 196.919 459.893 199.687C458.851 202.456 459.842 205.387 462.105 206.235Z" fill="#407BFF"></path>
  <path d="M442.097 209.944L440.968 209.803C440.121 209.662 439.556 208.957 439.697 208.112C439.838 207.266 440.544 206.703 441.391 206.844L442.521 206.985C443.368 207.126 443.933 207.83 443.792 208.675C443.651 209.521 442.945 210.084 442.097 209.944Z" fill="#407BFF"></path>
  <path opacity="0.4" d="M442.097 209.944L440.968 209.803C440.121 209.662 439.556 208.957 439.697 208.112C439.838 207.266 440.544 206.703 441.391 206.844L442.521 206.985C443.368 207.126 443.933 207.83 443.792 208.675C443.651 209.521 442.945 210.084 442.097 209.944Z" fill="black"></path>
  <path d="M457.347 223.893L448.875 232.065L452.264 242.21L463.983 229.388L457.347 223.893Z" fill="#407BFF"></path>
  <path d="M445.204 225.584L446.475 231.924L442.239 240.942L439.415 229.247L445.204 225.584Z" fill="#407BFF"></path>
  <path d="M455.511 231.079L460.453 213.325C460.453 213.325 458.053 208.957 458.618 207.971C459.182 206.985 461.724 195.149 463.418 193.74C465.254 192.472 472.596 194.726 473.444 195.853C474.15 197.122 466.384 213.325 466.384 213.325L463.56 232.629L455.511 231.079Z" fill="#E4897B"></path>
  <path d="M484.316 234.038C497.73 247.705 470.902 278.704 455.511 277.436C440.12 276.167 455.935 219.807 455.935 219.807L465.819 221.357C465.819 221.357 462.289 245.733 463.419 247.564C464.548 249.678 479.939 229.388 484.316 234.038Z" fill="#407BFF"></path>
  <path opacity="0.2" d="M484.316 234.038C497.73 247.705 470.902 278.704 455.511 277.436C440.12 276.167 455.935 219.807 455.935 219.807L465.819 221.357C465.819 221.357 462.289 245.733 463.419 247.564C464.548 249.678 479.939 229.388 484.316 234.038Z" fill="black"></path>
  <path d="M455.088 217.975L453.676 222.625L467.372 223.893V219.807L455.088 217.975Z" fill="#407BFF"></path>
  <path opacity="0.6" d="M434.331 267.572H428.824C428.26 267.572 427.695 267.009 427.695 266.445V256.018C427.695 255.455 428.26 254.891 428.824 254.891H434.331C434.896 254.891 435.461 255.455 435.461 256.018V266.445C435.32 267.009 434.896 267.572 434.331 267.572Z" fill="white"></path>
  <path opacity="0.2" d="M434.472 255.596H428.118V264.191H434.472V255.596Z" fill="black"></path>
  <path d="M432.072 251.791H430.66V256.864H432.072V251.791Z" fill="#263238"></path>
  <path d="M315.865 470.894C317.277 470.189 318.83 469.907 320.383 469.766C320.383 469.766 325.749 466.667 331.114 454.408H337.045C339.163 454.408 340.998 455.676 341.704 457.649C341.845 457.931 341.845 458.213 341.845 458.494C341.845 459.903 341.563 461.312 341.422 462.862C340.857 467.371 337.892 476.952 337.892 476.952L336.903 476.671L338.739 467.794C339.304 464.835 336.197 467.653 334.644 470.753C333.232 473.853 330.832 476.812 324.337 475.403C316.571 473.43 313.464 472.303 315.865 470.894Z" fill="#407BFF"></path>
  <path d="M332.103 451.167C332.103 451.167 324.619 466.808 320.383 469.766C320.383 469.766 326.172 473.148 332.103 465.539C339.869 455.676 341.704 458.494 341.704 458.494C341.704 458.494 341.422 455.113 340.716 453.422C339.727 450.322 332.103 451.167 332.103 451.167Z" fill="#E4897B"></path>
  <path d="M398.043 508.092C399.314 507.106 400.584 506.401 402.138 505.978C402.138 505.978 406.656 501.61 408.915 488.506L414.705 487.097C416.681 486.675 418.799 487.52 419.929 489.211C420.07 489.493 420.211 489.634 420.353 489.916C420.635 491.325 420.776 492.734 420.917 494.143C421.482 498.651 420.917 508.655 420.917 508.655H419.929L419.647 499.638C419.505 496.538 417.105 500.201 416.399 503.442C415.693 506.824 414.281 510.205 407.503 510.346C399.314 510.346 396.066 509.924 398.043 508.092Z" fill="#407BFF"></path>
  <path d="M409.198 484.984C409.198 484.984 405.668 501.892 402.138 505.837C402.138 505.837 408.492 507.81 412.587 498.933C417.811 487.52 420.211 489.775 420.211 489.775C420.211 489.775 419.082 486.534 418.093 485.125C416.258 482.307 409.198 484.984 409.198 484.984Z" fill="#E4897B"></path>
  <path d="M540.514 179.368H491.235C487.281 179.368 484.034 176.127 484.034 172.182V151.188C484.034 147.242 487.281 144.002 491.235 144.002H540.514C544.467 144.002 547.715 147.242 547.715 151.188V172.182C547.574 176.127 544.467 179.368 540.514 179.368Z" fill="#407BFF"></path>
  <path d="M501.119 175.282L486.152 195.431L510.156 176.691L501.119 175.282Z" fill="#407BFF"></path>
  <path d="M499.566 163.728C500.735 163.728 501.684 162.782 501.684 161.614C501.684 160.447 500.735 159.501 499.566 159.501C498.396 159.501 497.448 160.447 497.448 161.614C497.448 162.782 498.396 163.728 499.566 163.728Z" fill="white"></path>
  <path d="M510.438 163.728C511.608 163.728 512.556 162.782 512.556 161.614C512.556 160.447 511.608 159.501 510.438 159.501C509.268 159.501 508.32 160.447 508.32 161.614C508.32 162.782 509.268 163.728 510.438 163.728Z" fill="white"></path>
  <path d="M521.169 163.728C522.339 163.728 523.287 162.782 523.287 161.614C523.287 160.447 522.339 159.501 521.169 159.501C520 159.501 519.052 160.447 519.052 161.614C519.052 162.782 520 163.728 521.169 163.728Z" fill="white"></path>
  <path d="M532.042 163.728C533.212 163.728 534.16 162.782 534.16 161.614C534.16 160.447 533.212 159.501 532.042 159.501C530.872 159.501 529.924 160.447 529.924 161.614C529.924 162.782 530.872 163.728 532.042 163.728Z" fill="white"></path>
  <path d="M342.269 151.61L307.11 132.729C306.122 132.166 305.839 131.039 306.263 130.052L317.418 109.34C317.982 108.353 319.112 108.072 320.1 108.494L355.259 127.375C356.248 127.939 356.53 129.066 356.106 130.052L344.952 150.765C344.387 151.751 343.257 152.033 342.269 151.61Z" fill="#407BFF"></path>
  <path opacity="0.7" d="M342.269 151.61L307.11 132.729C306.122 132.166 305.839 131.039 306.263 130.052L317.418 109.34C317.982 108.353 319.112 108.072 320.1 108.494L355.259 127.375C356.248 127.939 356.53 129.066 356.106 130.052L344.952 150.765C344.387 151.751 343.257 152.033 342.269 151.61Z" fill="white"></path>
  <path opacity="0.2" d="M316.712 110.89L327.725 131.32C328.572 132.87 330.267 133.857 332.102 133.716L354.977 131.461L331.679 134.843C329.561 135.125 327.584 133.998 326.596 132.166L316.712 110.89Z" fill="black"></path>
  <path d="M289.884 107.085C290.307 99.1948 296.096 83.4138 303.156 78.6231C310.216 73.8324 305.557 80.4548 305.557 80.4548C305.557 80.4548 312.193 73.9733 315.864 74.1142C319.394 74.2551 315.864 78.3413 315.864 78.3413C315.864 78.3413 323.066 73.8324 326.454 74.1142C329.843 74.2551 326.454 78.2004 326.454 78.2004C326.454 78.2004 332.385 73.9733 334.785 75.946C337.186 78.0595 303.862 99.8993 300.191 108.776C296.52 117.935 289.601 115.117 289.884 107.085Z" fill="#407BFF"></path>
  <path opacity="0.4" d="M289.884 107.085C290.307 99.1948 296.096 83.4138 303.156 78.6231C310.216 73.8324 305.557 80.4548 305.557 80.4548C305.557 80.4548 312.193 73.9733 315.864 74.1142C319.394 74.2551 315.864 78.3413 315.864 78.3413C315.864 78.3413 323.066 73.8324 326.454 74.1142C329.843 74.2551 326.454 78.2004 326.454 78.2004C326.454 78.2004 332.385 73.9733 334.785 75.946C337.186 78.0595 303.862 99.8993 300.191 108.776C296.52 117.935 289.601 115.117 289.884 107.085Z" fill="white"></path>
  <path d="M318.547 105.958L323.066 108.776C323.348 108.917 323.207 109.481 322.783 109.481L318.124 109.058L318.547 112.58C318.547 113.003 318.124 113.144 317.841 112.862L315.158 109.762L318.547 105.958Z" fill="#407BFF"></path>
  <path opacity="0.3" d="M318.547 105.958L323.066 108.776C323.348 108.917 323.207 109.481 322.783 109.481L318.124 109.058L318.547 112.58C318.547 113.003 318.124 113.144 317.841 112.862L315.158 109.762L318.547 105.958Z" fill="white"></path>
  <path d="M256.137 88.3453C256.137 88.3453 262.35 84.1182 271.528 86.7954C271.528 86.7954 274.211 99.0538 281.553 103.14C285.507 105.394 295.391 105.253 303.157 102.717C312.476 99.7583 316.994 99.7583 318.547 103.14C320.101 106.381 318.406 110.185 311.346 111.876C304.286 113.567 298.638 125.825 285.789 125.966C272.94 126.107 266.162 113.285 269.41 102.013C269.551 102.013 265.597 93.6995 256.137 88.3453Z" fill="#407BFF"></path>
  <path opacity="0.5" d="M256.137 88.3453C256.137 88.3453 262.35 84.1182 271.528 86.7954C271.528 86.7954 274.211 99.0538 281.553 103.14C285.507 105.394 295.391 105.253 303.157 102.717C312.476 99.7583 316.994 99.7583 318.547 103.14C320.101 106.381 318.406 110.185 311.346 111.876C304.286 113.567 298.638 125.825 285.789 125.966C272.94 126.107 266.162 113.285 269.41 102.013C269.551 102.013 265.597 93.6995 256.137 88.3453Z" fill="white"></path>
  <path d="M314.452 106.099C314.764 106.099 315.017 105.847 315.017 105.535C315.017 105.224 314.764 104.972 314.452 104.972C314.141 104.972 313.888 105.224 313.888 105.535C313.888 105.847 314.141 106.099 314.452 106.099Z" fill="#263238"></path>
  <path d="M282.965 115.821C275.34 117.935 258.537 117.23 251.76 112.017C244.982 106.804 252.748 109.199 252.748 109.199C252.748 109.199 244.417 104.831 243.57 101.449C242.723 98.0676 247.665 100.181 247.665 100.181C247.665 100.181 241.17 94.686 240.323 91.4452C239.475 88.2045 244.276 90.1771 244.276 90.1771C244.276 90.1771 238.346 85.8092 239.617 82.8502C240.887 79.8913 271.951 104.831 281.694 105.535C291.155 106.24 290.59 113.708 282.965 115.821Z" fill="#407BFF"></path>
  <path opacity="0.4" d="M282.965 115.821C275.34 117.935 258.537 117.23 251.76 112.017C244.982 106.804 252.748 109.199 252.748 109.199C252.748 109.199 244.417 104.831 243.57 101.449C242.723 98.0676 247.665 100.181 247.665 100.181C247.665 100.181 241.17 94.686 240.323 91.4452C239.475 88.2045 244.276 90.1771 244.276 90.1771C244.276 90.1771 238.346 85.8092 239.617 82.8502C240.887 79.8913 271.951 104.831 281.694 105.535C291.155 106.24 290.59 113.708 282.965 115.821Z" fill="white"></path>
  <path d="M233.262 81.0185C231.992 80.5958 230.58 80.1731 229.309 79.7504" stroke="#407BFF" stroke-width="0.75" stroke-linecap="round" stroke-linejoin="round"></path>
  <path d="M220.978 77.6369C216.036 76.6505 210.953 75.946 206.011 75.5233C192.314 74.537 170.711 73.2689 162.38 86.7955C154.755 99.1948 167.887 120.471 172.546 132.025C178.336 146.115 185.113 163.728 178.336 178.663C164.357 209.38 104.912 193.458 84.72 165.137" stroke="#407BFF" stroke-width="0.75" stroke-linecap="round" stroke-linejoin="round" stroke-dasharray="6.03 6.03"></path>
  <path d="M82.4609 161.614C81.7549 160.346 81.19 159.078 80.6252 157.81" stroke="#407BFF" stroke-width="0.75" stroke-linecap="round" stroke-linejoin="round"></path>
  <path d="M253.878 273.49H200.222V284.481H253.878V273.49Z" fill="white"></path>
  <path opacity="0.1" d="M253.878 273.49H200.222V284.481H253.878V273.49Z" fill="black"></path>
  <path opacity="0.1" d="M222.814 273.49H200.222V284.481H222.814V273.49Z" fill="black"></path>
  <path opacity="0.1" d="M200.222 275.04H247.947L200.222 276.449V275.04Z" fill="black"></path>
  <path opacity="0.1" d="M253.878 277.013L212.506 277.999H253.878V277.013Z" fill="black"></path>
  <path opacity="0.1" d="M202.481 279.972L222.814 279.126L252.889 279.972L222.814 280.535L202.481 279.972Z" fill="black"></path>
  <path opacity="0.1" d="M200.222 282.367H235.663L200.222 283.212V282.367Z" fill="black"></path>
  <path opacity="0.1" d="M253.878 283.213L230.156 283.635H253.878V283.213Z" fill="black"></path>
  <path d="M246.535 262.5H192.879V273.49H246.535V262.5Z" fill="white"></path>
  <path opacity="0.1" d="M246.535 262.5H192.879V273.49H246.535V262.5Z" fill="black"></path>
  <path opacity="0.1" d="M215.471 262.5H192.879V273.49H215.471V262.5Z" fill="black"></path>
  <path opacity="0.1" d="M192.879 264.05H240.605L192.879 265.459V264.05Z" fill="black"></path>
  <path opacity="0.1" d="M246.394 266.022L205.023 267.009H246.394V266.022Z" fill="black"></path>
  <path opacity="0.1" d="M194.997 269.122L215.471 268.277L245.406 269.122L215.471 269.545L194.997 269.122Z" fill="black"></path>
  <path opacity="0.1" d="M192.879 271.377H228.179L192.879 272.222V271.377Z" fill="black"></path>
  <path opacity="0.1" d="M246.394 272.222L222.814 272.645H246.394V272.222Z" fill="black"></path>
  <path d="M252.607 251.51H198.951V262.5H252.607V251.51Z" fill="white"></path>
  <path opacity="0.1" d="M252.607 251.51H198.951V262.5H252.607V251.51Z" fill="black"></path>
  <path opacity="0.1" d="M221.543 251.51H198.951V262.5H221.543V251.51Z" fill="black"></path>
  <path opacity="0.1" d="M198.951 253.06H246.677L198.951 254.469V253.06Z" fill="black"></path>
  <path opacity="0.1" d="M252.607 255.032L211.235 256.019H252.607V255.032Z" fill="black"></path>
  <path opacity="0.1" d="M201.069 258.132L221.543 257.287L251.477 258.132L221.543 258.555L201.069 258.132Z" fill="black"></path>
  <path opacity="0.1" d="M198.951 260.386H234.251L198.951 261.232V260.386Z" fill="black"></path>
  <path opacity="0.1" d="M252.466 261.232L228.885 261.655H252.607L252.466 261.232Z" fill="black"></path>
  <path d="M288.189 284.199L289.601 278.985H346.928L373.333 281.522L374.321 284.199H288.189Z" fill="#263238"></path>
  <path opacity="0.4" d="M346.928 278.985V284.199H288.189L289.601 278.985H346.928Z" fill="black"></path>
  <path d="M335.35 253.764C335.632 256.582 333.514 258.837 330.832 258.837H243.146C240.322 258.837 237.922 256.582 237.64 253.764L232.415 197.685C232.415 197.122 232.415 196.558 232.556 195.994C232.98 194.022 234.816 192.613 236.934 192.613H324.76C327.584 192.613 329.984 194.867 330.267 197.685L335.35 253.764Z" fill="#263238"></path>
  <path opacity="0.4" d="M330.549 258.837H243.146C240.322 258.837 237.922 256.582 237.64 253.764L232.415 197.685C232.415 197.122 232.415 196.558 232.556 195.994H319.959C322.783 195.994 325.184 198.249 325.466 201.067L330.69 257.146C330.69 257.709 330.69 258.273 330.549 258.837Z" fill="black"></path>
  <path d="M270.257 224.456H288.472L283.53 276.308L312.335 280.535V284.199H251.901V280.535L264.185 276.308L270.257 224.456Z" fill="#263238"></path>
  <path opacity="0.1" d="M288.472 224.456L275.058 283.353L264.185 283.072L270.257 224.456H288.472Z" fill="white"></path>
  <path d="M288.331 510.205H279.717L264.185 294.344H275.622L288.331 510.205Z" fill="#263238"></path>
  <path opacity="0.4" d="M288.331 510.205H279.717L264.891 305.052L264.185 294.625H275.622L276.187 305.052L288.331 510.205Z" fill="#2E76BA"></path>
  <path opacity="0.2" d="M276.187 304.489H264.891L264.185 294.625H275.622L276.187 304.489Z" fill="black"></path>
  <path d="M351.871 510.205H343.116L341.704 294.344H353.283L351.871 510.205Z" fill="#263238"></path>
  <path opacity="0.5" d="M353.283 294.625L353 329.428L351.871 510.205H343.116L341.986 329.428L341.704 294.625H353.283Z" fill="#2E76BA"></path>
  <path opacity="0.2" d="M353.283 294.625L353 329.851H341.986L341.704 294.625H353.283Z" fill="black"></path>
  <path d="M443.651 510.205H435.037L419.505 294.344H430.943L443.651 510.205Z" fill="#263238"></path>
  <path opacity="0.5" d="M443.651 510.205H435.037L420.211 305.052L419.505 294.625H430.943L431.507 305.052L443.651 510.205Z" fill="#2E76BA"></path>
  <path opacity="0.2" d="M431.507 304.489H420.211L419.505 294.625H430.943L431.507 304.489Z" fill="black"></path>
  <path d="M189.349 510.205H180.736L193.444 294.344H204.881L189.349 510.205Z" fill="#263238"></path>
  <path opacity="0.5" d="M204.881 294.625L204.175 305.052L189.349 510.205H180.736L192.879 305.052L193.444 294.625H204.881Z" fill="#2E76BA"></path>
  <path opacity="0.2" d="M193.444 294.625H204.881L204.175 304.489H192.879L193.444 294.625Z" fill="black"></path>
  <path d="M437.014 299.698H187.373C185.678 299.698 184.266 298.289 184.266 296.598V288.849H439.979V296.598C440.12 298.289 438.708 299.698 437.014 299.698Z" fill="#407BFF"></path>
  <path opacity="0.6" d="M437.014 299.698H187.373C185.678 299.698 184.266 298.289 184.266 296.598V288.849H439.979V296.598C440.12 298.289 438.708 299.698 437.014 299.698Z" fill="white"></path>
  <path opacity="0.2" d="M440.12 288.849H184.407V294.203H440.12V288.849Z" fill="black"></path>
  <path d="M445.345 290.258H179.042C177.347 290.258 175.935 288.849 175.935 287.158C175.935 285.467 177.347 284.058 179.042 284.058H445.486C447.181 284.058 448.593 285.467 448.593 287.158C448.451 288.989 447.039 290.258 445.345 290.258Z" fill="#407BFF"></path>
  <path opacity="0.6" d="M445.345 290.258H179.042C177.347 290.258 175.935 288.849 175.935 287.158C175.935 285.467 177.347 284.058 179.042 284.058H445.486C447.181 284.058 448.593 285.467 448.593 287.158C448.451 288.989 447.039 290.258 445.345 290.258Z" fill="white"></path>
  <path d="M382.37 274.899L385.617 269.968C386.323 268.981 387.312 268.418 388.582 268.418H392.677C392.96 268.418 393.383 268.418 393.666 268.559L408.492 273.068C409.339 273.349 410.045 273.913 410.468 274.617L412.586 278.14L382.37 274.899Z" fill="#407BFF"></path>
  <path opacity="0.2" d="M412.728 278.14L391.124 275.745L382.37 274.758L385.617 269.827C386.323 268.84 387.312 268.277 388.582 268.277H392.677C393.101 268.277 393.383 268.277 393.666 268.418L393.948 268.559L408.492 272.927C409.339 273.208 410.045 273.772 410.468 274.477L412.728 278.14Z" fill="black"></path>
  <path opacity="0.2" d="M412.728 278.14L391.124 275.745L394.089 268.559L408.633 272.927C409.48 273.208 410.186 273.772 410.61 274.477L412.728 278.14Z" fill="black"></path>
  <path d="M422.894 283.776V284.199H404.114H377.145L378.84 277.576C379.546 275.04 381.805 273.349 384.346 273.349H404.679C405.385 273.349 405.95 273.49 406.656 273.772L409.198 274.758L419.223 278.563C421.482 279.267 422.894 281.381 422.894 283.776Z" fill="#407BFF"></path>
  <path opacity="0.2" d="M422.894 283.776V284.199H404.115L405.103 277.013C405.385 275.181 407.362 273.913 409.057 274.618L419.082 278.422C421.482 279.267 422.894 281.381 422.894 283.776Z" fill="black"></path>
  <path d="M407.08 279.408L413.01 261.514C413.292 260.809 414.14 260.386 414.846 260.809C415.41 261.091 415.693 261.655 415.552 262.359L410.468 281.522C410.61 281.381 407.221 282.649 407.08 279.408Z" fill="#263238"></path>
  <path opacity="0.2" d="M382.37 282.79H379.687L380.252 280.113H382.935L382.37 282.79Z" fill="black"></path>
  <path opacity="0.2" d="M386.323 282.649H383.641L384.205 279.972H386.888L386.323 282.649Z" fill="black"></path>
</svg>
